<svg xmlns="http://www.w3.org/2000/svg" xmlns:xlink="http://www.w3.org/1999/xlink" xmlns:lucid="lucid" width="1239" height="820"><g transform="translate(-100.99634340805196 -40)" lucid:page-tab-id="0_0"><path d="M140 60h160v160H140z" stroke="#000" stroke-width="2" fill="#fff"/><use xlink:href="#a" transform="matrix(1,0,0,1,145,65) translate(40.025 80.025)"/><path d="M320 450c0 49.7-40.3 90-90 90s-90-40.3-90-90 40.3-90 90-90 90 40.3 90 90z" stroke="#000" stroke-width="2" fill="#fff"/><use xlink:href="#b" transform="matrix(1,0,0,1,160,360) translate(1.5999999999999943 82.80000000000001)"/><use xlink:href="#c" transform="matrix(1,0,0,1,160,360) translate(102.45 82.80000000000001)"/><use xlink:href="#d" transform="matrix(1,0,0,1,160,360) translate(32.025 104.4)"/><use xlink:href="#e" transform="matrix(1,0,0,1,160,360) translate(52.025 104.4)"/><path d="M140 740h200v100H140z" fill="#fff"/><path d="M140 740h200m0 100H140" stroke="#000" stroke-width="2" fill="#fff"/><use xlink:href="#f" transform="matrix(1,0,0,1,160,740) translate(6.025000000000006 53.6)"/><use xlink:href="#g" transform="matrix(1,0,0,1,160,740) translate(73.025 53.6)"/><use xlink:href="#e" transform="matrix(1,0,0,1,160,740) translate(98.025 53.6)"/><path d="M223.13 313.5l1.55 4.17 1.35 4.14 1.18 4.24 1.05 4.42.9 4.7.74 5.06v.22l-1.98.2-.02-.17-.73-4.98-.88-4.62-1.03-4.34-1.16-4.15-1.3-4.08-1.53-4.08-1.1-2.6h2.18zm-32-85.56l.4 6.12.57 5.47.73 4.98.88 4.62 1.03 4.34 1.16 4.15 1.3 4.08 1.53 4.08 1.12 2.68h-2.16l-.83-1.94-1.55-4.17-1.35-4.14-1.18-4.24-1.05-4.42-.9-4.7-.74-5.06-.57-5.56-.4-6.2-.1-6 2-.04z"/><path d="M191.02 222l-2 .05L189 221h2zM229.8 355.77l-5.45-13.97 9.25-.54z"/><path d="M230 359l-7.1-18.12 12.02-.7zm-4.22-16.28l3.84 9.82 2.66-10.2z"/><use xlink:href="#h" transform="matrix(1,0,0,1,111.99634340805196,268.4435146721848) translate(0 14.4)"/><use xlink:href="#i" transform="matrix(1,0,0,1,111.99634340805196,268.4435146721848) translate(137.8 14.4)"/><use xlink:href="#j" transform="matrix(1,0,0,1,111.99634340805196,268.4435146721848) translate(0 36)"/><use xlink:href="#k" transform="matrix(1,0,0,1,111.99634340805196,268.4435146721848) translate(40 36)"/><use xlink:href="#l" transform="matrix(1,0,0,1,111.99634340805196,268.4435146721848) translate(55 36)"/><use xlink:href="#m" transform="matrix(1,0,0,1,111.99634340805196,268.4435146721848) translate(115.85000000000001 36)"/><path d="M216.2 558.6l-.58 7.54-.44 12.18.08 12.28.63 13.1 1.42 15.65 11.7 91.1.48 10.06" stroke="#000" stroke-width="2" fill="none"/><path d="M217.86 543.43l3.06 14.7-9.22-1.02zM229.9 735.77l-5-14.14 9.26-.25z" stroke="#000" stroke-width="2"/><path d="M459.8 243.1l3.73 6.13 3.2 5.82 2.77 5.53 2.34 5.23 1.98 5 1.66 4.72 1.37 4.5 1.1 4.32.9 4.13.68 3.97.5 3.8.3 3.68v.16l.16 3.63v3.7l-.16 3.75-.32 3.8-.5 3.9-.67 3.98-.87 4.07-1.07 4.18-1.3 4.3-1.53 4.43-1.8 4.58-2.1 4.7-2.43 4.9-2.78 5.03-3.15 5.22-3.57 5.38-4.02 5.53-4.5 5.7-5 5.8-5.54 5.9-6.06 5.9-6.56 5.92-7 5.8-7.4 5.6-7.65 5.32-7.83 4.96-7.83 4.53-7.72 4.03-7.48 3.52-7.16 3-6.76 2.52-6.3 2.06-5.88 1.64-5.4 1.27-5 .96-4.56.68-4.2.44-3.84.25-2.52.05-.04-2 2.47-.05 3.76-.24 4.12-.45 4.5-.66 4.9-.95 5.32-1.25 5.8-1.62 6.23-2.02 6.68-2.5 7.07-2.97 7.4-3.5 7.66-4 7.76-4.48 7.74-4.9 7.6-5.3 7.3-5.55 6.96-5.74 6.5-5.84 6-5.88 5.46-5.83 4.96-5.76 4.46-5.62 3.97-5.47 3.52-5.3 3.1-5.14 2.74-4.96 2.4-4.8 2.06-4.64 1.77-4.5 1.5-4.34 1.28-4.22 1.06-4.1.85-4 .64-3.88.5-3.8.3-3.74.15-3.66v-3.6l-.16-3.57v-.13l-.3-3.6-.5-3.74-.66-3.88-.86-4.05-1.1-4.22-1.34-4.44-1.63-4.65-1.95-4.9-2.3-5.17-2.73-5.45-3.17-5.75-3.7-6.06-1.47-2.22h2.4zM319.92 141.13l5.1 1.2 5.65 1.56 6.25 2.02 6.9 2.56 7.54 3.16 8.18 3.84 8.75 4.56 9.2 5.3 9.5 6 9.58 6.63 9.4 7.13 9.06 7.46 6.9 6.2h-3l-5.2-4.7-9-7.4-9.33-7.07-9.5-6.6-9.42-5.95-9.14-5.26-8.68-4.53-8.1-3.8-7.47-3.13-6.83-2.53-6.17-1.98-5.57-1.55-5-1.17-.36-.07.37-1.96z"/><path d="M322.05 450.98l-1.08.02.03-1v-1l1-.02zM317.88 146.55l-13.66-6.2 14.7-3z"/><path d="M318.72 148.03L301 140l19.06-3.92zm-11.3-7.3l9.62 4.34.72-6.48z"/><use xlink:href="#n" transform="matrix(1,0,0,1,352.0863917178194,198.7536249956158) translate(0 14.4)"/><use xlink:href="#o" transform="matrix(1,0,0,1,352.0863917178194,198.7536249956158) translate(142.85000000000002 14.4)"/><use xlink:href="#p" transform="matrix(1,0,0,1,352.0863917178194,198.7536249956158) translate(0 36)"/><use xlink:href="#q" transform="matrix(1,0,0,1,352.0863917178194,198.7536249956158) translate(86.85 36)"/><use xlink:href="#r" transform="matrix(1,0,0,1,352.0863917178194,198.7536249956158) translate(111.85 36)"/><path d="M720 60h160v160H720z" stroke="#000" stroke-width="2" fill="#fff"/><use xlink:href="#a" transform="matrix(1,0,0,1,725,65) translate(40.025 80.025)"/><path d="M900 450c0 49.7-40.3 90-90 90s-90-40.3-90-90 40.3-90 90-90 90 40.3 90 90z" stroke="#000" stroke-width="2" fill="#fff"/><use xlink:href="#s" transform="matrix(1,0,0,1,740,360) translate(6.624999999999993 93.60000000000001)"/><use xlink:href="#e" transform="matrix(1,0,0,1,740,360) translate(77.42500000000001 93.60000000000001)"/><path d="M666.8 319.28l4.2 9.45 4.4 8.83 4.48 8.16 4.54 7.5 4.55 6.85 4.52 6.23 4.47 5.65 4.4 5.1 4.34 4.62 4.25 4.16 4.17 3.75 2.47 2.05-1.3 1.54-2.5-2.07-4.22-3.8-4.3-4.23-4.4-4.68-4.46-5.18-4.52-5.7-4.58-6.3-4.6-6.93-4.58-7.58-4.52-8.24-4.42-8.9-4.24-9.52-2.86-7.23h2.15zm51.22-199.6l-2.46.06-3.24.2-3.08.32-2.92.44-2.8.53-2.66.62-2.56.72-2.47.8-2.38.9-2.3.96-2.26 1.05-2.2 1.14-2.12 1.23-2.08 1.33-2.04 1.4-2 1.53-1.97 1.64-1.95 1.75-1.9 1.86-1.9 2.02-1.87 2.16-1.84 2.32-1.82 2.5-1.8 2.7-1.77 2.94-1.74 3.17-1.7 3.44-1.66 3.75-1.6 4.08-1.56 4.45-1.47 4.86-1.35 5.3-1.23 5.82-1.07 6.35-.88 6.94-.63 7.54-.34 8.17v8.8l.4 9.43.84 9.98.4 3.17h-2l-.4-2.97-.83-10.05-.4-9.5v-8.9l.35-8.25.63-7.62.9-7 1.07-6.44 1.25-5.9 1.4-5.4 1.48-4.94 1.57-4.53 1.64-4.15 1.7-3.82 1.74-3.52 1.78-3.24 1.82-3 1.84-2.77 1.87-2.58 1.9-2.4 1.9-2.2 1.96-2.1 1.98-1.92 2-1.8 2.03-1.68 2.08-1.57 2.1-1.47 2.17-1.36 2.2-1.27 2.26-1.18 2.32-1.1 2.4-1 2.45-.92 2.55-.83 2.65-.73 2.75-.65 2.87-.55 3-.44 3.15-.33 3.33-.2 2.5-.06z"/><path d="M719 119.67l-1 .02-.05-2 1.05-.03zM729.44 401.14l-14.35-4.38 5.3-7.6z"/><path d="M732.1 403l-18.6-5.7 6.88-9.84zm-15.4-6.8l10.1 3.08-6.36-8.42z"/><use xlink:href="#t" transform="matrix(1,0,0,1,588.5585313652089,248.02822550864678) translate(0 14.4)"/><use xlink:href="#u" transform="matrix(1,0,0,1,588.5585313652089,248.02822550864678) translate(73.95 14.4)"/><use xlink:href="#v" transform="matrix(1,0,0,1,588.5585313652089,248.02822550864678) translate(0 36)"/><use xlink:href="#w" transform="matrix(1,0,0,1,588.5585313652089,248.02822550864678) translate(102.85000000000001 36)"/><use xlink:href="#x" transform="matrix(1,0,0,1,588.5585313652089,248.02822550864678) translate(0 57.6)"/><path d="M460 740h200v100H460z" fill="#fff"/><path d="M460 740h200m0 100H460" stroke="#000" stroke-width="2" fill="#fff"/><use xlink:href="#a" transform="matrix(1,0,0,1,480,740) translate(45.025 53.6)"/><path d="M780 740h200v100H780z" fill="#fff"/><path d="M780 740h200m0 100H780" stroke="#000" stroke-width="2" fill="#fff"/><use xlink:href="#y" transform="matrix(1,0,0,1,800,740) translate(52.025 53.6)"/><path d="M1100 740h200v100h-200z" fill="#fff"/><path d="M1100 740h200m0 100h-200" stroke="#000" stroke-width="2" fill="#fff"/><use xlink:href="#z" transform="matrix(1,0,0,1,1120,740) translate(27.049999999999997 42.8)"/><use xlink:href="#A" transform="matrix(1,0,0,1,1120,740) translate(112.95 42.8)"/><use xlink:href="#e" transform="matrix(1,0,0,1,1120,740) translate(52.025 64.4)"/><path d="M487.24 720.5v-.1l-.88-8.38-1.17-7.92-1.44-7.52-1.7-7.2-1.93-6.94-2.2-6.73-2.43-6.55-2.7-6.45-3-6.38-3.33-6.35-3.68-6.37-4.1-6.45-4.6-6.6-5.16-6.8-5.9-7.13-6.85-7.6-8.13-8.3-10-9.35-13.03-11.24-19.63-15.5-81.83-59.44" stroke="#000" stroke-width="2" fill="none"/><path d="M487.87 735.76l-5.22-14.06 9.27-.38z" stroke="#000" stroke-width="2"/><path d="M304.18 504.4l-1.18 1.62-.83-.6 1.2-1.62z"/><path d="M560.6 720.5l.47-7.6 1.23-11.75 1.63-11.04 2-10.44 2.32-9.94 2.66-9.52 2.98-9.15 3.3-8.86 3.6-8.6 3.96-8.4 4.3-8.26 4.7-8.14 5.13-8.06 5.58-8.03 6.1-8.03 6.7-8.1 7.4-8.2 8.17-8.34 9.13-8.57 10.26-8.85 11.68-9.23 13.4-9.74 15.7-10.4 18.7-11.32 1.5-.82" stroke="#000" stroke-width="2" fill="none"/><path d="M560.1 735.76l-4.17-14.4 9.26.3zM726.5 493.68l-10.2 10.97-4.5-8.1z" stroke="#000" stroke-width="2"/><path d="M843.38 535.72l11.04 29.4 7.05 21.5 4.98 17.7 3.8 16 3 15.6 2.43 16.35 1.97 18.6 1.53 24.06.5 25.57" stroke="#000" stroke-width="2" fill="none"/><path d="M844.32 535.4l-1.87.7-.36-.95 1.85-.73z"/><path d="M879.94 735.76l-4.87-14.18 9.27-.16z" stroke="#000" stroke-width="2"/><path d="M1290 450c0 49.7-40.3 90-90 90s-90-40.3-90-90 40.3-90 90-90 90 40.3 90 90z" stroke="#000" stroke-width="2" fill="#fff"/><use xlink:href="#B" transform="matrix(1,0,0,1,1130,360) translate(4.1499999999999915 93.60000000000001)"/><use xlink:href="#C" transform="matrix(1,0,0,1,1130,360) translate(54.95 93.60000000000001)"/><path d="M1015.32 317.7l-1.75 6.9-2.12 7.1-2.5 7.25-2.9 7.37-3.27 7.42-3.64 7.4-4 7.3-4.27 7.15-4.55 6.87-4.73 6.57-4.9 6.2-4.94 5.77-4.97 5.34-4.96 4.88-4.87 4.42-4.78 3.98-4.66 3.56-4.5 3.15-4.37 2.8-4.2 2.44-4.06 2.14-3.9 1.86-3.75 1.6-3.62 1.36-3.5 1.15-3.37.95-3.26.78-3.15.6-3.06.47-1.1.13-.22-2 1.05-.1 2.98-.46 3.08-.6 3.18-.75 3.3-.94 3.4-1.13 3.55-1.33 3.7-1.56 3.82-1.82 3.98-2.1 4.13-2.4 4.3-2.75 4.43-3.1 4.58-3.5 4.7-3.94 4.83-4.36 4.88-4.82 4.92-5.27 4.9-5.7 4.82-6.14 4.68-6.5 4.5-6.82 4.24-7.06 3.94-7.24 3.6-7.32 3.25-7.35 2.87-7.3 2.48-7.17 2.1-7.02 1.72-6.82.8-3.8h2.04zM901.67 141.24l4.64 1.1 4.82 1.33 4.97 1.62 5.12 1.9 5.28 2.23 5.4 2.54 5.5 2.88 5.56 3.2 5.6 3.56 5.57 3.9 5.53 4.18 5.42 4.5 5.27 4.74 5.1 4.98 4.85 5.17 4.6 5.34 4.33 5.47 4.03 5.54 3.72 5.6 3.4 5.64 3.1 5.64 2.8 5.62 2.5 5.58 2.18 5.55 1.92 5.5 1.24 4.1h-2.1l-1.04-3.48-1.9-5.42-2.16-5.47-2.45-5.5-2.75-5.56-3.06-5.56-3.37-5.56-3.68-5.53-3.98-5.47-4.28-5.4-4.55-5.27-4.8-5.1-5.02-4.92-5.2-4.7-5.36-4.43-5.46-4.14-5.5-3.82-5.54-3.5-5.5-3.18-5.4-2.84-5.33-2.5-5.2-2.2-5.07-1.87-4.9-1.6-4.72-1.32-4.54-1.07-2.06-.38.37-1.97zM897.96 146.35l-13.74-6.03 14.66-3.2z"/><path d="M898.82 147.82L881 140l19-4.15zm-11.38-7.18l9.66 4.24.65-6.5zM901.73 442.6l-1.03.12-.2-2 1-.1z"/><g><use xlink:href="#D" transform="matrix(1,0,0,1,936.3268777879659,248.62846393577396) translate(0 14.4)"/><use xlink:href="#g" transform="matrix(1,0,0,1,936.3268777879659,248.62846393577396) translate(93.85 14.4)"/><use xlink:href="#E" transform="matrix(1,0,0,1,936.3268777879659,248.62846393577396) translate(118.85 14.4)"/><use xlink:href="#F" transform="matrix(1,0,0,1,936.3268777879659,248.62846393577396) translate(0 36)"/><use xlink:href="#G" transform="matrix(1,0,0,1,936.3268777879659,248.62846393577396) translate(40.95 36)"/><use xlink:href="#H" transform="matrix(1,0,0,1,936.3268777879659,248.62846393577396) translate(106.8 36)"/><use xlink:href="#I" transform="matrix(1,0,0,1,936.3268777879659,248.62846393577396) translate(0 57.6)"/></g><path d="M940.02 738l.24-11.84.75-11.95 1.2-11.2 1.55-10.57 1.9-10.04 2.26-9.6 2.58-9.2 2.88-8.87 3.2-8.6 3.53-8.4 3.86-8.23 4.24-8.1 4.63-8.02 5.06-7.98 5.54-7.98 6.1-8.03 6.73-8.14 7.45-8.28 8.33-8.5 9.37-8.78 10.64-9.2 12.27-9.7 14.36-10.42 17.2-11.42 21.3-12.88 5.02-2.78" stroke="#000" stroke-width="2" fill="none"/><path d="M941.02 738l-.02 1h-2l.02-1.05z"/><path d="M1115.57 491.9l-10.23 10.96-4.5-8.1z" stroke="#000" stroke-width="2"/><path d="M1229.54 555.42l1.1 5.42 1.7 10.73 1.2 10.47.78 10.52.35 11.02-.13 12.25-.83 15.4-7.78 89.28" stroke="#000" stroke-width="2" fill="none"/><path d="M1226.1 540.55l7.73 12.85-9.03 2.1zM1225.46 735.77l-4.2-14.4 9.27.28z" stroke="#000" stroke-width="2"/><path d="M1160 60h160v160h-160z" stroke="#000" stroke-width="2" fill="#fff"/><g><use xlink:href="#J" transform="matrix(1,0,0,1,1165,65) translate(18.574999999999996 80.025)"/></g><path d="M1224 314.48l-4.68 18.6-2.86 13.83-2 12.27-1.97-.32 2-12.3 2.87-13.93 4.7-18.64.4-1.48h2.07zm16.24-74.92l-.35 4.6-1.12 9.23-1.56 9.5-1.32 6.4h-2.04l1.4-6.75 1.54-9.44 1.1-9.13.35-4.57z"/><path d="M1214.47 359.15l-.17 1-1.98-.3.17-1.02zM1243.92 238.68l-9.26-.38 5.2-14.07z"/><path d="M1245.25 239.73l-12-.5L1240 221zm-9.18-2.37l6.5.26-2.83-10.15z"/><g><use xlink:href="#K" transform="matrix(1,0,0,1,1186.3479076965239,269.3031995730836) translate(0 14.4)"/><use xlink:href="#L" transform="matrix(1,0,0,1,1186.3479076965239,269.3031995730836) translate(65.95 14.4)"/><use xlink:href="#I" transform="matrix(1,0,0,1,1186.3479076965239,269.3031995730836) translate(0 36)"/></g><path d="M602.05 385.38l6.47 5.57 7 5.52 7.47 5.4 7.9 5.25 8.28 5 8.53 4.67 8.7 4.27 8.66 3.85 8.54 3.36 8.27 2.87 7.9 2.38 7.46 1.9 6.97 1.47 6.44 1.08 5.92.74 2.08.2-.18 1.98-2.1-.2-6-.74-6.54-1.1-7.04-1.48-7.54-1.93-7.98-2.4-8.36-2.9-8.6-3.4-8.76-3.87-8.75-4.32-8.62-4.7-8.35-5.05-7.98-5.27-7.54-5.47-7.05-5.57-6.54-5.63-3.2-3h2.93zm98.86-285.16l-1.68.4-4.12 1.15-4.42 1.44-4.75 1.78-5.1 2.15-5.5 2.6-5.9 3.07-6.32 3.65-6.73 4.28-7.13 4.96-7.48 5.67-7.75 6.42-7.92 7.13-7.97 7.8-7.84 8.37-7.58 8.78-7.17 9.05-6.65 9.16-6.05 9.1-5.4 8.92-4.76 8.65-4.12 8.3-3.52 7.9-2.97 7.5-2.47 7.07-2 6.67-1.63 6.3-1.26 5.92-.94 5.58-.67 5.27-.42 4.97-.2 4.72-.02 2.43.1 4.46.3 4.45.46 4.46.67 4.47.87 4.5 1.07 4.53 1.27 4.57 1.52 4.63 1.74 4.7 2 4.76 2.3 4.85 1.53 2.9H564l-1.04-2-2.33-4.93-2.05-4.84-1.78-4.78-1.54-4.7-1.3-4.66-1.1-4.6-.88-4.6-.68-4.54-.5-4.54-.28-4.54-.1-4.53.02-2.5.2-4.78.43-5.06.68-5.35.96-5.66 1.28-6 1.64-6.37 2.04-6.75 2.5-7.16 3-7.57 3.55-8 4.17-8.36 4.8-8.72 5.44-9 6.1-9.17 6.7-9.22 7.24-9.12 7.64-8.84 7.9-8.42 8.03-7.86 8-7.2 7.82-6.47 7.55-5.73 7.2-5 6.8-4.33 6.4-3.7 5.97-3.1 5.57-2.64 5.2-2.18 4.82-1.8 4.5-1.46 4.2-1.17 1.73-.42zM715.8 97.36l-13.6 6.37-1.14-9.2z"/><path d="M719 96.95l-17.6 8.27-1.5-11.93zm-15.97 5.3l9.55-4.5-10.36-1.98zM719.68 439l-.1.8-.1 1.2-1.04-.1.18-2z"/><g><use xlink:href="#M" transform="matrix(1,0,0,1,508.20013909196666,340.66981729007125) translate(0 14.4)"/><use xlink:href="#N" transform="matrix(1,0,0,1,508.20013909196666,340.66981729007125) translate(35 14.4)"/><use xlink:href="#O" transform="matrix(1,0,0,1,508.20013909196666,340.66981729007125) translate(0 36)"/><use xlink:href="#P" transform="matrix(1,0,0,1,508.20013909196666,340.66981729007125) translate(34 36)"/><use xlink:href="#Q" transform="matrix(1,0,0,1,508.20013909196666,340.66981729007125) translate(64.95 36)"/></g><defs><path d="M30-248c87 1 191-15 191 75 0 78-77 80-158 76V0H30v-248zm33 125c57 0 124 11 124-50 0-59-68-47-124-48v98" id="R"/><path d="M141-36C126-15 110 5 73 4 37 3 15-17 15-53c-1-64 63-63 125-63 3-35-9-54-41-54-24 1-41 7-42 31l-33-3c5-37 33-52 76-52 45 0 72 20 72 64v82c-1 20 7 32 28 27v20c-31 9-61-2-59-35zM48-53c0 20 12 33 32 33 41-3 63-29 60-74-43 2-92-5-92 41" id="S"/><path d="M96-169c-40 0-48 33-48 73s9 75 48 75c24 0 41-14 43-38l32 2c-6 37-31 61-74 61-59 0-76-41-82-99-10-93 101-131 147-64 4 7 5 14 7 22l-32 3c-4-21-16-35-41-35" id="T"/><path d="M24-231v-30h32v30H24zM24 0v-190h32V0H24" id="U"/><path d="M100-194c63 0 86 42 84 106H49c0 40 14 67 53 68 26 1 43-12 49-29l28 8c-11 28-37 45-77 45C44 4 14-33 15-96c1-61 26-98 85-98zm52 81c6-60-76-77-97-28-3 7-6 17-6 28h103" id="V"/><path d="M117-194c89-4 53 116 60 194h-32v-121c0-31-8-49-39-48C34-167 62-67 57 0H25l-1-190h30c1 10-1 24 2 32 11-22 29-35 61-36" id="W"/><path d="M59-47c-2 24 18 29 38 22v24C64 9 27 4 27-40v-127H5v-23h24l9-43h21v43h35v23H59v120" id="X"/><g id="a"><use transform="matrix(0.05,0,0,0.05,0,0)" xlink:href="#R"/><use transform="matrix(0.05,0,0,0.05,12,0)" xlink:href="#S"/><use transform="matrix(0.05,0,0,0.05,22,0)" xlink:href="#T"/><use transform="matrix(0.05,0,0,0.05,31,0)" xlink:href="#U"/><use transform="matrix(0.05,0,0,0.05,34.95,0)" xlink:href="#V"/><use transform="matrix(0.05,0,0,0.05,44.95,0)" xlink:href="#W"/><use transform="matrix(0.05,0,0,0.05,54.95,0)" xlink:href="#X"/><use transform="matrix(0.05,0,0,0.05,59.95,0)" xlink:href="#V"/></g><path d="M30 0v-248h187v28H63v79h144v27H63v87h162V0H30" id="Y"/><path d="M210-169c-67 3-38 105-44 169h-31v-121c0-29-5-50-35-48C34-165 62-65 56 0H25l-1-190h30c1 10-1 24 2 32 10-44 99-50 107 0 11-21 27-35 58-36 85-2 47 119 55 194h-31v-121c0-29-5-49-35-48" id="Z"/><path d="M106-169C34-169 62-67 57 0H25v-261h32l-1 103c12-21 28-36 61-36 89 0 53 116 60 194h-32v-121c2-32-8-49-39-48" id="aa"/><path d="M114-163C36-179 61-72 57 0H25l-1-190h30c1 12-1 29 2 39 6-27 23-49 58-41v29" id="ab"/><g id="b"><use transform="matrix(0.05,0,0,0.05,0,0)" xlink:href="#Y"/><use transform="matrix(0.05,0,0,0.05,12,0)" xlink:href="#W"/><use transform="matrix(0.05,0,0,0.05,22,0)" xlink:href="#T"/><use transform="matrix(0.05,0,0,0.05,31,0)" xlink:href="#S"/><use transform="matrix(0.05,0,0,0.05,41,0)" xlink:href="#Z"/><use transform="matrix(0.05,0,0,0.05,55.95,0)" xlink:href="#U"/><use transform="matrix(0.05,0,0,0.05,59.900000000000006,0)" xlink:href="#W"/><use transform="matrix(0.05,0,0,0.05,69.9,0)" xlink:href="#aa"/><use transform="matrix(0.05,0,0,0.05,79.9,0)" xlink:href="#S"/><use transform="matrix(0.05,0,0,0.05,89.9,0)" xlink:href="#ab"/></g><path d="M115-194c55 1 70 41 70 98S169 2 115 4C84 4 66-9 55-30l1 105H24l-1-265h31l2 30c10-21 28-34 59-34zm-8 174c40 0 45-34 45-75s-6-73-45-74c-42 0-51 32-51 76 0 43 10 73 51 73" id="ac"/><g id="c"><use transform="matrix(0.05,0,0,0.05,0,0)" xlink:href="#ac"/><use transform="matrix(0.05,0,0,0.05,10,0)" xlink:href="#S"/><use transform="matrix(0.05,0,0,0.05,20,0)" xlink:href="#ab"/><use transform="matrix(0.05,0,0,0.05,25.950000000000003,0)" xlink:href="#S"/></g><path d="M100-194c62-1 85 37 85 99 1 63-27 99-86 99S16-35 15-95c0-66 28-99 85-99zM99-20c44 1 53-31 53-75 0-43-8-75-51-75s-53 32-53 75 10 74 51 75" id="ad"/><use transform="matrix(0.05,0,0,0.05,0,0)" xlink:href="#ad" id="d"/><path d="M141 0L90-78 38 0H4l68-98-65-92h35l48 74 47-74h35l-64 92 68 98h-35" id="ae"/><g id="e"><use transform="matrix(0.05,0,0,0.05,0,0)" xlink:href="#Y"/><use transform="matrix(0.05,0,0,0.05,12,0)" xlink:href="#ae"/><use transform="matrix(0.05,0,0,0.05,21,0)" xlink:href="#S"/><use transform="matrix(0.05,0,0,0.05,31,0)" xlink:href="#Z"/><use transform="matrix(0.05,0,0,0.05,45.95,0)" xlink:href="#V"/></g><path d="M205 0l-28-72H64L36 0H1l101-248h38L239 0h-34zm-38-99l-47-123c-12 45-31 82-46 123h93" id="af"/><path d="M177-190C167-65 218 103 67 71c-23-6-38-20-44-43l32-5c15 47 100 32 89-28v-30C133-14 115 1 83 1 29 1 15-40 15-95c0-56 16-97 71-98 29-1 48 16 59 35 1-10 0-23 2-32h30zM94-22c36 0 50-32 50-73 0-42-14-75-50-75-39 0-46 34-46 75s6 73 46 73" id="ag"/><path d="M85-194c31 0 48 13 60 33l-1-100h32l1 261h-30c-2-10 0-23-3-31C134-8 116 4 85 4 32 4 16-35 15-94c0-66 23-100 70-100zm9 24c-40 0-46 34-46 75 0 40 6 74 45 74 42 0 51-32 51-76 0-42-9-74-50-73" id="ah"/><g id="f"><use transform="matrix(0.05,0,0,0.05,0,0)" xlink:href="#af"/><use transform="matrix(0.05,0,0,0.05,12,0)" xlink:href="#ag"/><use transform="matrix(0.05,0,0,0.05,22,0)" xlink:href="#V"/><use transform="matrix(0.05,0,0,0.05,32,0)" xlink:href="#W"/><use transform="matrix(0.05,0,0,0.05,42,0)" xlink:href="#ah"/><use transform="matrix(0.05,0,0,0.05,52,0)" xlink:href="#S"/></g><g id="g"><use transform="matrix(0.05,0,0,0.05,0,0)" xlink:href="#ah"/><use transform="matrix(0.05,0,0,0.05,10,0)" xlink:href="#V"/></g><g id="h"><use transform="matrix(0.05,0,0,0.05,0,0)" xlink:href="#T"/><use transform="matrix(0.05,0,0,0.05,9,0)" xlink:href="#ad"/><use transform="matrix(0.05,0,0,0.05,19,0)" xlink:href="#Z"/><use transform="matrix(0.05,0,0,0.05,33.95,0)" xlink:href="#ac"/><use transform="matrix(0.05,0,0,0.05,43.95,0)" xlink:href="#S"/><use transform="matrix(0.05,0,0,0.05,53.95,0)" xlink:href="#ab"/><use transform="matrix(0.05,0,0,0.05,59.900000000000006,0)" xlink:href="#V"/><use transform="matrix(0.05,0,0,0.05,69.9,0)" xlink:href="#T"/><use transform="matrix(0.05,0,0,0.05,78.9,0)" xlink:href="#U"/><use transform="matrix(0.05,0,0,0.05,82.85000000000001,0)" xlink:href="#Z"/><use transform="matrix(0.05,0,0,0.05,97.80000000000001,0)" xlink:href="#V"/><use transform="matrix(0.05,0,0,0.05,107.80000000000001,0)" xlink:href="#W"/><use transform="matrix(0.05,0,0,0.05,117.80000000000001,0)" xlink:href="#X"/><use transform="matrix(0.05,0,0,0.05,122.80000000000001,0)" xlink:href="#ad"/></g><g id="i"><use transform="matrix(0.05,0,0,0.05,0,0)" xlink:href="#W"/><use transform="matrix(0.05,0,0,0.05,10,0)" xlink:href="#S"/></g><g id="j"><use transform="matrix(0.05,0,0,0.05,0,0)" xlink:href="#ah"/><use transform="matrix(0.05,0,0,0.05,10,0)" xlink:href="#S"/><use transform="matrix(0.05,0,0,0.05,20,0)" xlink:href="#X"/><use transform="matrix(0.05,0,0,0.05,25,0)" xlink:href="#S"/></g><use transform="matrix(0.05,0,0,0.05,0,0)" xlink:href="#V" id="k"/><g id="l"><use transform="matrix(0.05,0,0,0.05,0,0)" xlink:href="#aa"/><use transform="matrix(0.05,0,0,0.05,10,0)" xlink:href="#ad"/><use transform="matrix(0.05,0,0,0.05,20,0)" xlink:href="#ab"/><use transform="matrix(0.05,0,0,0.05,25.950000000000003,0)" xlink:href="#S"/><use transform="matrix(0.05,0,0,0.05,35.95,0)" xlink:href="#ab"/><use transform="matrix(0.05,0,0,0.05,41.900000000000006,0)" xlink:href="#U"/><use transform="matrix(0.05,0,0,0.05,45.85000000000001,0)" xlink:href="#ad"/></g><g id="m"><use transform="matrix(0.05,0,0,0.05,0,0)" xlink:href="#S"/><use transform="matrix(0.05,0,0,0.05,10,0)" xlink:href="#ag"/><use transform="matrix(0.05,0,0,0.05,20,0)" xlink:href="#V"/><use transform="matrix(0.05,0,0,0.05,30,0)" xlink:href="#W"/><use transform="matrix(0.05,0,0,0.05,40,0)" xlink:href="#ah"/><use transform="matrix(0.05,0,0,0.05,50,0)" xlink:href="#S"/><use transform="matrix(0.05,0,0,0.05,60,0)" xlink:href="#ah"/><use transform="matrix(0.05,0,0,0.05,70,0)" xlink:href="#ad"/></g><g id="n"><use transform="matrix(0.05,0,0,0.05,0,0)" xlink:href="#V"/><use transform="matrix(0.05,0,0,0.05,10,0)" xlink:href="#W"/><use transform="matrix(0.05,0,0,0.05,20,0)" xlink:href="#T"/><use transform="matrix(0.05,0,0,0.05,29,0)" xlink:href="#S"/><use transform="matrix(0.05,0,0,0.05,39,0)" xlink:href="#Z"/><use transform="matrix(0.05,0,0,0.05,53.95,0)" xlink:href="#U"/><use transform="matrix(0.05,0,0,0.05,57.900000000000006,0)" xlink:href="#W"/><use transform="matrix(0.05,0,0,0.05,67.9,0)" xlink:href="#aa"/><use transform="matrix(0.05,0,0,0.05,77.9,0)" xlink:href="#S"/><use transform="matrix(0.05,0,0,0.05,87.9,0)" xlink:href="#Z"/><use transform="matrix(0.05,0,0,0.05,102.85000000000001,0)" xlink:href="#V"/><use transform="matrix(0.05,0,0,0.05,112.85000000000001,0)" xlink:href="#W"/><use transform="matrix(0.05,0,0,0.05,122.85000000000001,0)" xlink:href="#X"/><use transform="matrix(0.05,0,0,0.05,127.85000000000001,0)" xlink:href="#ad"/></g><g id="o"><use transform="matrix(0.05,0,0,0.05,0,0)" xlink:href="#ac"/><use transform="matrix(0.05,0,0,0.05,10,0)" xlink:href="#S"/><use transform="matrix(0.05,0,0,0.05,20,0)" xlink:href="#ab"/><use transform="matrix(0.05,0,0,0.05,25.950000000000003,0)" xlink:href="#S"/></g><path d="M24 0v-261h32V0H24" id="ai"/><path d="M9 0v-24l116-142H16v-24h144v24L44-24h123V0H9" id="aj"/><path d="M96-169c-40 0-48 33-48 73s9 75 48 75c24 0 41-14 43-38l32 2c-6 37-31 61-74 61-59 0-76-41-82-99-10-93 101-131 147-64 4 7 5 14 7 22l-32 3c-4-21-16-35-41-35zm3 187c19-1 33 8 33 26 0 31-30 33-64 32V58c18 2 39 4 41-13 1-15-18-13-34-13L87 0h19" id="ak"/><path d="M141-36C126-15 110 5 73 4 37 3 15-17 15-53c-1-64 63-63 125-63 3-35-9-54-41-54-24 1-41 7-42 31l-33-3c5-37 33-52 76-52 45 0 72 20 72 64v82c-1 20 7 32 28 27v20c-31 9-61-2-59-35zM48-53c0 20 12 33 32 33 41-3 63-29 60-74-43 2-92-5-92 41zm117-205c-3 23-9 48-36 47-26-1-65-44-74 0H39c4-23 8-48 36-47s64 44 74 0h16" id="al"/><g id="p"><use transform="matrix(0.05,0,0,0.05,0,0)" xlink:href="#ab"/><use transform="matrix(0.05,0,0,0.05,5.95,0)" xlink:href="#V"/><use transform="matrix(0.05,0,0,0.05,15.949999999999998,0)" xlink:href="#S"/><use transform="matrix(0.05,0,0,0.05,25.950000000000003,0)" xlink:href="#ai"/><use transform="matrix(0.05,0,0,0.05,29.899999999999995,0)" xlink:href="#U"/><use transform="matrix(0.05,0,0,0.05,33.85,0)" xlink:href="#aj"/><use transform="matrix(0.05,0,0,0.05,42.85,0)" xlink:href="#S"/><use transform="matrix(0.05,0,0,0.05,52.85,0)" xlink:href="#ak"/><use transform="matrix(0.05,0,0,0.05,61.85,0)" xlink:href="#al"/><use transform="matrix(0.05,0,0,0.05,71.85,0)" xlink:href="#ad"/></g><g id="q"><use transform="matrix(0.05,0,0,0.05,0,0)" xlink:href="#ah"/><use transform="matrix(0.05,0,0,0.05,10,0)" xlink:href="#ad"/></g><g id="r"><use transform="matrix(0.05,0,0,0.05,0,0)" xlink:href="#V"/><use transform="matrix(0.05,0,0,0.05,10,0)" xlink:href="#ae"/><use transform="matrix(0.05,0,0,0.05,19,0)" xlink:href="#S"/><use transform="matrix(0.05,0,0,0.05,29,0)" xlink:href="#Z"/><use transform="matrix(0.05,0,0,0.05,43.95,0)" xlink:href="#V"/></g><path d="M233-177c-1 41-23 64-60 70L243 0h-38l-65-103H63V0H30v-248c88 3 205-21 203 71zM63-129c60-2 137 13 137-47 0-61-80-42-137-45v92" id="am"/><g id="s"><use transform="matrix(0.05,0,0,0.05,0,0)" xlink:href="#am"/><use transform="matrix(0.05,0,0,0.05,12.950000000000001,0)" xlink:href="#V"/><use transform="matrix(0.05,0,0,0.05,22.950000000000003,0)" xlink:href="#S"/><use transform="matrix(0.05,0,0,0.05,32.95,0)" xlink:href="#ai"/><use transform="matrix(0.05,0,0,0.05,36.900000000000006,0)" xlink:href="#U"/><use transform="matrix(0.05,0,0,0.05,40.85000000000001,0)" xlink:href="#aj"/><use transform="matrix(0.05,0,0,0.05,49.85000000000001,0)" xlink:href="#S"/><use transform="matrix(0.05,0,0,0.05,59.85,0)" xlink:href="#ab"/></g><path d="M135-143c-3-34-86-38-87 0 15 53 115 12 119 90S17 21 10-45l28-5c4 36 97 45 98 0-10-56-113-15-118-90-4-57 82-63 122-42 12 7 21 19 24 35" id="an"/><g id="t"><use transform="matrix(0.05,0,0,0.05,0,0)" xlink:href="#ab"/><use transform="matrix(0.05,0,0,0.05,5.95,0)" xlink:href="#V"/><use transform="matrix(0.05,0,0,0.05,15.949999999999998,0)" xlink:href="#an"/><use transform="matrix(0.05,0,0,0.05,24.95,0)" xlink:href="#ac"/><use transform="matrix(0.05,0,0,0.05,34.95,0)" xlink:href="#ad"/><use transform="matrix(0.05,0,0,0.05,44.95,0)" xlink:href="#an"/><use transform="matrix(0.05,0,0,0.05,53.95,0)" xlink:href="#X"/><use transform="matrix(0.05,0,0,0.05,58.95,0)" xlink:href="#S"/></g><g id="u"><use transform="matrix(0.05,0,0,0.05,0,0)" xlink:href="#ah"/><use transform="matrix(0.05,0,0,0.05,10,0)" xlink:href="#V"/></g><path d="M145-31C134-9 116 4 85 4 32 4 16-35 15-94c0-59 17-99 70-100 32-1 48 14 60 33 0-11-1-24 2-32h30l-1 268h-32zM93-21c41 0 51-33 51-76s-8-73-50-73c-40 0-46 35-46 75s5 74 45 74" id="ao"/><path d="M84 4C-5 8 30-112 23-190h32v120c0 31 7 50 39 49 72-2 45-101 50-169h31l1 190h-30c-1-10 1-25-2-33-11 22-28 36-60 37" id="ap"/><g id="v"><use transform="matrix(0.05,0,0,0.05,0,0)" xlink:href="#ao"/><use transform="matrix(0.05,0,0,0.05,10,0)" xlink:href="#ap"/><use transform="matrix(0.05,0,0,0.05,20,0)" xlink:href="#V"/><use transform="matrix(0.05,0,0,0.05,30,0)" xlink:href="#an"/><use transform="matrix(0.05,0,0,0.05,39,0)" xlink:href="#X"/><use transform="matrix(0.05,0,0,0.05,44,0)" xlink:href="#U"/><use transform="matrix(0.05,0,0,0.05,47.95,0)" xlink:href="#ad"/><use transform="matrix(0.05,0,0,0.05,57.95,0)" xlink:href="#W"/><use transform="matrix(0.05,0,0,0.05,67.95,0)" xlink:href="#S"/><use transform="matrix(0.05,0,0,0.05,77.95,0)" xlink:href="#ab"/><use transform="matrix(0.05,0,0,0.05,83.9,0)" xlink:href="#U"/><use transform="matrix(0.05,0,0,0.05,87.85000000000001,0)" xlink:href="#ad"/></g><path d="M100-194c63 0 86 42 84 106H49c0 40 14 67 53 68 26 1 43-12 49-29l28 8c-11 28-37 45-77 45C44 4 14-33 15-96c1-61 26-98 85-98zm52 81c6-60-76-77-97-28-3 7-6 17-6 28h103zm-74-98c8-23 27-35 38-54h36v5l-58 49H78" id="aq"/><g id="w"><use transform="matrix(0.05,0,0,0.05,0,0)" xlink:href="#ac"/><use transform="matrix(0.05,0,0,0.05,10,0)" xlink:href="#ab"/><use transform="matrix(0.05,0,0,0.05,15.949999999999998,0)" xlink:href="#aq"/></g><g id="x"><use transform="matrix(0.05,0,0,0.05,0,0)" xlink:href="#V"/><use transform="matrix(0.05,0,0,0.05,10,0)" xlink:href="#ae"/><use transform="matrix(0.05,0,0,0.05,19,0)" xlink:href="#S"/><use transform="matrix(0.05,0,0,0.05,29,0)" xlink:href="#Z"/><use transform="matrix(0.05,0,0,0.05,43.95,0)" xlink:href="#V"/></g><g id="y"><use transform="matrix(0.05,0,0,0.05,0,0)" xlink:href="#Y"/><use transform="matrix(0.05,0,0,0.05,12,0)" xlink:href="#ae"/><use transform="matrix(0.05,0,0,0.05,21,0)" xlink:href="#S"/><use transform="matrix(0.05,0,0,0.05,31,0)" xlink:href="#Z"/><use transform="matrix(0.05,0,0,0.05,45.95,0)" xlink:href="#V"/></g><g id="z"><use transform="matrix(0.05,0,0,0.05,0,0)" xlink:href="#am"/><use transform="matrix(0.05,0,0,0.05,12.950000000000001,0)" xlink:href="#V"/><use transform="matrix(0.05,0,0,0.05,22.950000000000003,0)" xlink:href="#an"/><use transform="matrix(0.05,0,0,0.05,31.950000000000003,0)" xlink:href="#ap"/><use transform="matrix(0.05,0,0,0.05,41.95,0)" xlink:href="#ai"/><use transform="matrix(0.05,0,0,0.05,45.900000000000006,0)" xlink:href="#X"/><use transform="matrix(0.05,0,0,0.05,50.900000000000006,0)" xlink:href="#S"/><use transform="matrix(0.05,0,0,0.05,60.900000000000006,0)" xlink:href="#ah"/><use transform="matrix(0.05,0,0,0.05,70.9,0)" xlink:href="#ad"/></g><g id="A"><use transform="matrix(0.05,0,0,0.05,0,0)" xlink:href="#ah"/><use transform="matrix(0.05,0,0,0.05,10,0)" xlink:href="#ad"/></g><g id="B"><use transform="matrix(0.05,0,0,0.05,0,0)" xlink:href="#Y"/><use transform="matrix(0.05,0,0,0.05,12,0)" xlink:href="#Z"/><use transform="matrix(0.05,0,0,0.05,26.950000000000003,0)" xlink:href="#U"/><use transform="matrix(0.05,0,0,0.05,30.900000000000002,0)" xlink:href="#X"/><use transform="matrix(0.05,0,0,0.05,35.900000000000006,0)" xlink:href="#U"/><use transform="matrix(0.05,0,0,0.05,39.85000000000001,0)" xlink:href="#ab"/></g><g id="C"><use transform="matrix(0.05,0,0,0.05,0,0)" xlink:href="#am"/><use transform="matrix(0.05,0,0,0.05,12.950000000000001,0)" xlink:href="#V"/><use transform="matrix(0.05,0,0,0.05,22.950000000000003,0)" xlink:href="#an"/><use transform="matrix(0.05,0,0,0.05,31.950000000000003,0)" xlink:href="#ap"/><use transform="matrix(0.05,0,0,0.05,41.95,0)" xlink:href="#ai"/><use transform="matrix(0.05,0,0,0.05,45.900000000000006,0)" xlink:href="#X"/><use transform="matrix(0.05,0,0,0.05,50.900000000000006,0)" xlink:href="#S"/><use transform="matrix(0.05,0,0,0.05,60.900000000000006,0)" xlink:href="#ah"/><use transform="matrix(0.05,0,0,0.05,70.9,0)" xlink:href="#ad"/></g><path d="M101-234c-31-9-42 10-38 44h38v23H63V0H32v-167H5v-23h27c-7-52 17-82 69-68v24" id="ar"/><g id="D"><use transform="matrix(0.05,0,0,0.05,0,0)" xlink:href="#U"/><use transform="matrix(0.05,0,0,0.05,3.95,0)" xlink:href="#W"/><use transform="matrix(0.05,0,0,0.05,13.949999999999998,0)" xlink:href="#ar"/><use transform="matrix(0.05,0,0,0.05,18.95,0)" xlink:href="#ad"/><use transform="matrix(0.05,0,0,0.05,28.950000000000003,0)" xlink:href="#ab"/><use transform="matrix(0.05,0,0,0.05,34.9,0)" xlink:href="#Z"/><use transform="matrix(0.05,0,0,0.05,49.85,0)" xlink:href="#S"/><use transform="matrix(0.05,0,0,0.05,59.85,0)" xlink:href="#ak"/><use transform="matrix(0.05,0,0,0.05,68.85,0)" xlink:href="#al"/><use transform="matrix(0.05,0,0,0.05,78.85,0)" xlink:href="#ad"/></g><g id="E"><use transform="matrix(0.05,0,0,0.05,0,0)" xlink:href="#ac"/><use transform="matrix(0.05,0,0,0.05,10,0)" xlink:href="#ab"/><use transform="matrix(0.05,0,0,0.05,15.949999999999998,0)" xlink:href="#S"/><use transform="matrix(0.05,0,0,0.05,25.950000000000003,0)" xlink:href="#aj"/><use transform="matrix(0.05,0,0,0.05,34.95,0)" xlink:href="#ad"/></g><g id="F"><use transform="matrix(0.05,0,0,0.05,0,0)" xlink:href="#ac"/><use transform="matrix(0.05,0,0,0.05,10,0)" xlink:href="#S"/><use transform="matrix(0.05,0,0,0.05,20,0)" xlink:href="#ab"/><use transform="matrix(0.05,0,0,0.05,25.950000000000003,0)" xlink:href="#S"/></g><g id="G"><use transform="matrix(0.05,0,0,0.05,0,0)" xlink:href="#ab"/><use transform="matrix(0.05,0,0,0.05,5.95,0)" xlink:href="#V"/><use transform="matrix(0.05,0,0,0.05,15.949999999999998,0)" xlink:href="#X"/><use transform="matrix(0.05,0,0,0.05,20.95,0)" xlink:href="#U"/><use transform="matrix(0.05,0,0,0.05,24.9,0)" xlink:href="#ab"/><use transform="matrix(0.05,0,0,0.05,30.849999999999994,0)" xlink:href="#S"/><use transform="matrix(0.05,0,0,0.05,40.849999999999994,0)" xlink:href="#ah"/><use transform="matrix(0.05,0,0,0.05,50.849999999999994,0)" xlink:href="#S"/></g><g id="H"><use transform="matrix(0.05,0,0,0.05,0,0)" xlink:href="#ah"/><use transform="matrix(0.05,0,0,0.05,10,0)" xlink:href="#ad"/></g><g id="I"><use transform="matrix(0.05,0,0,0.05,0,0)" xlink:href="#ab"/><use transform="matrix(0.05,0,0,0.05,5.95,0)" xlink:href="#V"/><use transform="matrix(0.05,0,0,0.05,15.949999999999998,0)" xlink:href="#an"/><use transform="matrix(0.05,0,0,0.05,24.95,0)" xlink:href="#ap"/><use transform="matrix(0.05,0,0,0.05,34.95,0)" xlink:href="#ai"/><use transform="matrix(0.05,0,0,0.05,38.900000000000006,0)" xlink:href="#X"/><use transform="matrix(0.05,0,0,0.05,43.900000000000006,0)" xlink:href="#S"/><use transform="matrix(0.05,0,0,0.05,53.900000000000006,0)" xlink:href="#ah"/><use transform="matrix(0.05,0,0,0.05,63.900000000000006,0)" xlink:href="#ad"/></g><g id="J"><use transform="matrix(0.05,0,0,0.05,0,0)" xlink:href="#am"/><use transform="matrix(0.05,0,0,0.05,12.950000000000001,0)" xlink:href="#V"/><use transform="matrix(0.05,0,0,0.05,22.950000000000003,0)" xlink:href="#T"/><use transform="matrix(0.05,0,0,0.05,31.950000000000003,0)" xlink:href="#V"/><use transform="matrix(0.05,0,0,0.05,41.95,0)" xlink:href="#ac"/><use transform="matrix(0.05,0,0,0.05,51.95,0)" xlink:href="#T"/><use transform="matrix(0.05,0,0,0.05,60.95,0)" xlink:href="#U"/><use transform="matrix(0.05,0,0,0.05,64.9,0)" xlink:href="#ad"/><use transform="matrix(0.05,0,0,0.05,74.9,0)" xlink:href="#W"/><use transform="matrix(0.05,0,0,0.05,84.9,0)" xlink:href="#U"/><use transform="matrix(0.05,0,0,0.05,88.85000000000001,0)" xlink:href="#an"/><use transform="matrix(0.05,0,0,0.05,97.85000000000001,0)" xlink:href="#X"/><use transform="matrix(0.05,0,0,0.05,102.85000000000001,0)" xlink:href="#S"/></g><g id="K"><use transform="matrix(0.05,0,0,0.05,0,0)" xlink:href="#V"/><use transform="matrix(0.05,0,0,0.05,10,0)" xlink:href="#W"/><use transform="matrix(0.05,0,0,0.05,20,0)" xlink:href="#X"/><use transform="matrix(0.05,0,0,0.05,25,0)" xlink:href="#ab"/><use transform="matrix(0.05,0,0,0.05,30.950000000000003,0)" xlink:href="#V"/><use transform="matrix(0.05,0,0,0.05,40.95,0)" xlink:href="#ag"/><use transform="matrix(0.05,0,0,0.05,50.95,0)" xlink:href="#S"/></g><g id="L"><use transform="matrix(0.05,0,0,0.05,0,0)" xlink:href="#ah"/><use transform="matrix(0.05,0,0,0.05,10,0)" xlink:href="#ad"/></g><g id="M"><use transform="matrix(0.05,0,0,0.05,0,0)" xlink:href="#W"/><use transform="matrix(0.05,0,0,0.05,10,0)" xlink:href="#al"/><use transform="matrix(0.05,0,0,0.05,20,0)" xlink:href="#ad"/></g><g id="N"><use transform="matrix(0.05,0,0,0.05,0,0)" xlink:href="#T"/><use transform="matrix(0.05,0,0,0.05,9,0)" xlink:href="#ap"/><use transform="matrix(0.05,0,0,0.05,19,0)" xlink:href="#Z"/><use transform="matrix(0.05,0,0,0.05,33.95,0)" xlink:href="#ac"/><use transform="matrix(0.05,0,0,0.05,43.95,0)" xlink:href="#ab"/><use transform="matrix(0.05,0,0,0.05,49.900000000000006,0)" xlink:href="#U"/><use transform="matrix(0.05,0,0,0.05,53.85,0)" xlink:href="#Z"/><use transform="matrix(0.05,0,0,0.05,68.80000000000001,0)" xlink:href="#V"/><use transform="matrix(0.05,0,0,0.05,78.80000000000001,0)" xlink:href="#W"/><use transform="matrix(0.05,0,0,0.05,88.80000000000001,0)" xlink:href="#X"/><use transform="matrix(0.05,0,0,0.05,93.80000000000001,0)" xlink:href="#ad"/></g><g id="O"><use transform="matrix(0.05,0,0,0.05,0,0)" xlink:href="#ah"/><use transform="matrix(0.05,0,0,0.05,10,0)" xlink:href="#ad"/><use transform="matrix(0.05,0,0,0.05,20,0)" xlink:href="#an"/></g><g id="P"><use transform="matrix(0.05,0,0,0.05,0,0)" xlink:href="#ac"/><use transform="matrix(0.05,0,0,0.05,10,0)" xlink:href="#ab"/><use transform="matrix(0.05,0,0,0.05,15.949999999999998,0)" xlink:href="#aq"/></g><g id="Q"><use transform="matrix(0.05,0,0,0.05,0,0)" xlink:href="#ab"/><use transform="matrix(0.05,0,0,0.05,5.95,0)" xlink:href="#V"/><use transform="matrix(0.05,0,0,0.05,15.949999999999998,0)" xlink:href="#ao"/><use transform="matrix(0.05,0,0,0.05,25.950000000000003,0)" xlink:href="#ap"/><use transform="matrix(0.05,0,0,0.05,35.95,0)" xlink:href="#U"/><use transform="matrix(0.05,0,0,0.05,39.900000000000006,0)" xlink:href="#an"/><use transform="matrix(0.05,0,0,0.05,48.900000000000006,0)" xlink:href="#U"/><use transform="matrix(0.05,0,0,0.05,52.85,0)" xlink:href="#X"/><use transform="matrix(0.05,0,0,0.05,57.85,0)" xlink:href="#ad"/><use transform="matrix(0.05,0,0,0.05,67.85000000000001,0)" xlink:href="#an"/></g></defs></g></svg>