<svg xmlns="http://www.w3.org/2000/svg" xmlns:xlink="http://www.w3.org/1999/xlink" xmlns:lucid="lucid" width="1520" height="900"><g transform="translate(0 0)" lucid:page-tab-id="0_0"><path d="M200 60h160v160H200z" stroke="#000" stroke-width="2" fill="#fff"/><use xlink:href="#a" transform="matrix(1,0,0,1,205,65) translate(40.025 80.025)"/><path d="M380 470c0 49.7-40.3 90-90 90s-90-40.3-90-90 40.3-90 90-90 90 40.3 90 90z" stroke="#000" stroke-width="2" fill="#fff"/><use xlink:href="#b" transform="matrix(1,0,0,1,220,380) translate(5.074999999999989 93.60000000000001)"/><use xlink:href="#c" transform="matrix(1,0,0,1,220,380) translate(78.975 93.60000000000001)"/><path d="M289.14 328.36l1.3 20.63.2 11.48-2 .04-.2-11.44-1.3-20.54-.76-6.94h2zm-7.57-77.44l1.28 20.54.76 6.94h-2l-.74-6.77-1.3-20.62-.54-28.98 2-.04z"/><path d="M281.02 222l-2 .05L279 221h2zM289.94 375.76l-4.9-14.17 9.26-.2z"/><path d="M290 379l-6.36-18.38 12.02-.23zm-3.57-16.44l3.45 9.97 3.06-10.1z"/><use xlink:href="#d" transform="matrix(1,0,0,1,230.5476206431694,278.40420359194337) translate(0 14.4)"/><use xlink:href="#e" transform="matrix(1,0,0,1,230.5476206431694,278.40420359194337) translate(88.85 14.4)"/><use xlink:href="#f" transform="matrix(1,0,0,1,230.5476206431694,278.40420359194337) translate(0 36)"/><path d="M180 700h200v100H180z" fill="#fff"/><path d="M180 700h200m0 100H180" stroke="#000" stroke-width="2" fill="#fff"/><use xlink:href="#g" transform="matrix(1,0,0,1,200,700) translate(27.049999999999997 42.8)"/><use xlink:href="#h" transform="matrix(1,0,0,1,200,700) translate(112.95 42.8)"/><use xlink:href="#c" transform="matrix(1,0,0,1,200,700) translate(52.025 64.4)"/><path d="M83.55 313.7l.62 3.9.77 3.86.93 3.8 1.08 3.75 1.25 3.74 1.42 3.72 1.6 3.72 1.8 3.73 2.02 3.76 2.24 3.8 2.5 3.86 2.78 3.92 3.1 4.02 3.5 4.13 3.9 4.24 4.4 4.42 5 4.6 5.7 4.83 6.57 5.1 7.64 5.43 9.04 5.88 10.96 6.5 13.84 7.42 19.56 9.45 11.22 5.03-.82 1.83-11.24-5.05-19.63-9.48-13.92-7.47-11.02-6.52-9.12-5.92-7.7-5.5-6.64-5.14-5.77-4.88-5.05-4.66-4.47-4.47-3.95-4.32-3.54-4.18-3.15-4.1-2.83-3.98-2.54-3.93-2.3-3.86-2.04-3.83-1.83-3.8-1.63-3.8-1.45-3.78-1.28-3.8-1.1-3.85-.95-3.88-.8-3.94-.63-4-.28-2.4h2zm97.6-169.7l-1.35.43-2.84 1.05-2.96 1.25-3.1 1.46-3.3 1.7-3.43 2-3.63 2.3-3.83 2.66-4.02 3.07-4.25 3.5-4.46 4.03-4.66 4.57-4.83 5.15-4.98 5.78-5.08 6.4-5.1 7-5 7.56-4.85 8-4.57 8.32-4.22 8.5-3.78 8.48-3.3 8.33-2.8 8.07-2.33 7.7-1.8 7.04H84.6l.06-.25 1.88-7.33L88.9 253l2.83-8.14 3.33-8.42 3.8-8.56 4.26-8.56 4.62-8.4 4.88-8.07 5.07-7.62 5.12-7.08 5.13-6.46 5.04-5.85 4.88-5.22 4.72-4.63 4.52-4.07 4.3-3.57 4.12-3.1 3.9-2.72 3.7-2.35 3.5-2.05 3.36-1.75 3.18-1.5 3.05-1.28 2.9-1.08 1.4-.45zM195.8 140.53l-13.3 6.93-1.53-9.14z"/><path d="M199 140l-17.26 8.98-1.98-11.86zm-15.74 5.94l9.35-4.87-10.42-1.56zM207.9 430.7l-.1.22-.72 1.62-.94-.43.82-1.8z"/><use xlink:href="#i" transform="matrix(1,0,0,1,37.16522229090658,268.359639785465) translate(0 14.4)"/><use xlink:href="#j" transform="matrix(1,0,0,1,37.16522229090658,268.359639785465) translate(58.95 14.4)"/><use xlink:href="#k" transform="matrix(1,0,0,1,37.16522229090658,268.359639785465) translate(0 36)"/><use xlink:href="#l" transform="matrix(1,0,0,1,37.16522229090658,268.359639785465) translate(39 36)"/><path d="M290 579.5v101" stroke="#000" stroke-width="2" fill="none"/><path d="M290 564.24l4.64 14.26h-9.28zM290 695.76l-4.64-14.26h9.28z" stroke="#000" stroke-width="2"/><path d="M492.35 287.8l-.73 4.74-.98 4.9-1.24 5.1-1.53 5.35-1.86 5.56-2.2 5.83-2.63 6.1-3.07 6.4-3.57 6.7-4.1 6.98-4.7 7.26-5.3 7.52-5.94 7.7-6.58 7.83-7.16 7.82-7.66 7.7-8 7.42-8.22 6.97-8.2 6.42-8 5.72-7.6 5-7.15 4.24-6.57 3.55-5.06 2.47-.87-1.8 5.02-2.45 6.5-3.5 7.06-4.22 7.56-4.94 7.93-5.7 8.12-6.34 8.14-6.92 7.96-7.36 7.6-7.64 7.1-7.77 6.5-7.76 5.9-7.63 5.26-7.45 4.65-7.2 4.06-6.9 3.5-6.62 3.05-6.32 2.6-6.04 2.18-5.75 1.83-5.5 1.5-5.26 1.23-5.03.95-4.8.72-4.65.13-1.15h2zM383.82 141.98l4.48 1.24 4.68 1.5 4.87 1.8 5.04 2.1 5.2 2.42 5.35 2.77 5.46 3.12 5.54 3.48 5.56 3.83 5.53 4.16 5.45 4.46 5.3 4.74 5.13 4.98 4.9 5.15 4.6 5.28 4.28 5.4 3.97 5.4 3.62 5.4 3.3 5.38 2.94 5.3 2.63 5.24 2.3 5.13 2.02 5.02 1.74 4.9 1.45 4.8 1.22 4.67 1 4.56.76 4.45.57 4.34.16 1.8h-2l-.15-1.6-.54-4.25-.76-4.37-.97-4.47-1.2-4.58-1.44-4.7-1.72-4.84-1.98-4.94-2.28-5.06-2.58-5.15-2.9-5.24-3.25-5.32-3.6-5.34-3.9-5.34-4.25-5.3-4.54-5.23-4.8-5.1-5.07-4.9-5.25-4.7-5.38-4.4-5.47-4.12-5.5-3.78-5.45-3.44-5.4-3.08-5.26-2.73-5.14-2.4-4.96-2.06-4.8-1.76-4.6-1.47-4.4-1.22-4.18-.95.45-1.95z"/><path d="M374.33 433.1l-.95.45-.83-1.82.9-.44zM377.9 146.48l-13.68-6.13 14.68-3.1z"/><path d="M378.75 147.96L361 140l19.04-4zm-11.3-7.27l9.6 4.3.7-6.48z"/><use xlink:href="#m" transform="matrix(1,0,0,1,409.84061022229974,264.7987874035871) translate(0 14.4)"/><use xlink:href="#n" transform="matrix(1,0,0,1,409.84061022229974,264.7987874035871) translate(65.95 14.4)"/><use xlink:href="#o" transform="matrix(1,0,0,1,409.84061022229974,264.7987874035871) translate(90.95 14.4)"/><path d="M20 20h580v840H20z" stroke="#000" stroke-width="2" fill-opacity="0" filter="url(#p)"/><g filter="url(#q)"><path d="M1280 120h160v160h-160z" stroke="#000" stroke-width="2" fill-opacity="0"/><use xlink:href="#r" transform="matrix(1,0,0,1,1285,125) translate(19.549999999999997 65.9625)"/><use xlink:href="#h" transform="matrix(1,0,0,1,1285,125) translate(110.45 65.9625)"/><use xlink:href="#s" transform="matrix(1,0,0,1,1285,125) translate(6.525000000000006 87.5625)"/><use xlink:href="#n" transform="matrix(1,0,0,1,1285,125) translate(66.47500000000001 87.5625)"/><use xlink:href="#t" transform="matrix(1,0,0,1,1285,125) translate(91.47500000000001 87.5625)"/></g><g filter="url(#u)"><path d="M1180 450c0 49.7-40.3 90-90 90s-90-40.3-90-90 40.3-90 90-90 90 40.3 90 90z" stroke="#000" stroke-width="2" fill-opacity="0"/><use xlink:href="#v" transform="matrix(1,0,0,1,1020,360) translate(41.05 82.80000000000001)"/><use xlink:href="#w" transform="matrix(1,0,0,1,1020,360) translate(30.074999999999996 104.4)"/></g><g filter="url(#x)"><path d="M820 740h200v100H820z" fill-opacity="0"/><path d="M820 740h200m0 100H820" stroke="#000" stroke-width="2" fill-opacity="0"/><use xlink:href="#y" transform="matrix(1,0,0,1,840,740) translate(16.025 53.6)"/><use xlink:href="#n" transform="matrix(1,0,0,1,840,740) translate(66.975 53.6)"/><use xlink:href="#z" transform="matrix(1,0,0,1,840,740) translate(91.975 53.6)"/></g><g filter="url(#x)"><path d="M1140 740h200v100h-200z" fill-opacity="0"/><path d="M1140 740h200m0 100h-200" stroke="#000" stroke-width="2" fill-opacity="0"/><use xlink:href="#A" transform="matrix(1,0,0,1,1160,740) translate(8.574999999999989 53.6)"/><use xlink:href="#B" transform="matrix(1,0,0,1,1160,740) translate(70.475 53.6)"/><use xlink:href="#c" transform="matrix(1,0,0,1,1160,740) translate(95.475 53.6)"/></g><g filter="url(#q)"><path d="M760 120h160v160H760z" stroke="#000" stroke-width="2" fill-opacity="0"/><use xlink:href="#C" transform="matrix(1,0,0,1,765,125) translate(18.574999999999996 80.025)"/></g><path d="M892.12 403.73l3.72 7.13 3.7 6.42 3.7 5.8 3.62 5.23 3.57 4.72 3.53 4.26 3.46 3.85 3.4 3.47 3.36 3.15 3.3 2.86 3.26 2.6 3.22 2.33 3.2 2.13 3.16 1.9 3.15 1.75 3.14 1.56 3.15 1.4 3.14 1.24 3.14 1.1 3.17.96 3.22.82 3.24.7 3.3.55 3.35.42 3.44.3 3.5.14h3.5v2h-3.54l-3.6-.16-3.5-.3-3.43-.43-3.38-.56-3.34-.7-3.28-.85-3.26-1-3.23-1.12-3.23-1.28-3.2-1.43-3.23-1.6-3.22-1.76-3.24-1.96-3.26-2.16-3.3-2.4-3.3-2.63-3.38-2.9-3.42-3.22-3.46-3.54-3.52-3.9-3.57-4.34-3.63-4.78-3.68-5.3-3.72-5.86-3.75-6.5-3.77-7.2-2.1-4.48h2.2zm-26.6-110.5l.8 12.7 1.35 12.92 1.9 12.84 2.38 12.47 2.8 11.9 3.1 11.2 3.38 10.38.33.9h-2.13l-.1-.24-3.38-10.45-3.15-11.27-2.8-12-2.4-12.56-1.9-12.92-1.38-13-.8-12.8-.24-11.28 2-.04z"/><path d="M865.28 282l-2 .05-.03-1.05h2zM997.87 469.7l-13.62 6.27-1.1-9.2z"/><path d="M1001.1 469.3l-17.68 8.16-1.4-11.94zm-16 5.2l9.56-4.43-10.34-2.05z"/><use xlink:href="#d" transform="matrix(1,0,0,1,800.693967614871,378.5372590872076) translate(0 14.4)"/><use xlink:href="#B" transform="matrix(1,0,0,1,800.693967614871,378.5372590872076) translate(88.85 14.4)"/><use xlink:href="#D" transform="matrix(1,0,0,1,800.693967614871,378.5372590872076) translate(113.85 14.4)"/><path d="M1030.18 541.67l-3.7 4.9-9.06 10.94-11.5 12.8-19.97 20.3-36.13 35.94-8.8 9.77-6.4 7.76-5.1 6.74-4.28 6.14-3.65 5.77-3.2 5.54-2.8 5.38-2.5 5.3-2.2 5.28-1.97 5.32-1.74 5.4-1.55 5.5-1.33 5.7-1.12 5.92-.9 6.2-.24 2.3" stroke="#000" stroke-width="2" fill="none"/><path d="M1039.06 529.26l-4.54 14.3-7.53-5.4zM901.22 735.77l-3.84-14.5 9.25.5z" stroke="#000" stroke-width="2"/><path d="M1238.88 720.54l-.03-.27-.82-5.62-1.03-5.4-1.23-5.24-1.43-5.1-1.64-5.06-1.87-5.02-2.13-5.06-2.42-5.15-2.78-5.3-3.24-5.6-3.83-6.04-4.73-6.8-6.22-8.17-9.98-12.02-37.56-43.32-7.58-9.98-6.04-8.68-5.12-8.05-4.46-7.73-3-5.72" stroke="#000" stroke-width="2" fill="none"/><path d="M1239.8 735.77l-5.48-13.96 9.25-.55zM1125.43 537.3l10.13 11.08-8.44 3.84z" stroke="#000" stroke-width="2"/><path d="M1295.28 392.4l-4.45 4.72-4.63 4.53-4.82 4.32-5 4.12-5.18 3.9-5.36 3.7-5.52 3.5-5.7 3.28-5.87 3.05-6.03 2.83-6.2 2.6-6.36 2.34-6.54 2.1-6.7 1.87-6.87 1.6-7.04 1.32-3.67.53-.3-1.98 3.65-.53 6.96-1.3 6.8-1.6 6.6-1.82 6.46-2.1 6.3-2.3 6.1-2.57 5.97-2.8 5.8-3 5.6-3.24 5.47-3.45 5.3-3.66 5.1-3.88 4.94-4.07 4.75-4.27 4.58-4.46 3.7-3.9h2.7zm40.48-92.84l-.07.8-.95 7.3-1.22 7.15-1.5 7-1.76 6.8-2.03 6.67-2.27 6.5-2.52 6.3-2.75 6.16-2.98 6-3.2 5.8-2.56 4.2h-2.34l3.16-5.2 3.16-5.74 2.95-5.92 2.7-6.08 2.5-6.24 2.24-6.4 2-6.6 1.74-6.72 1.48-6.9 1.2-7.07.94-7.22.06-.77zM1198.63 446.45l-14.64-3.28 13.76-5.95z"/><path d="M1199.76 447.73l-19-4.26 17.87-7.7zm-12.54-4.86l10.3 2.3-.62-6.5zM1339.44 298.72l-9.26-.48 5.36-14z"/><path d="M1340.76 299.8l-12-.63 6.95-18.17zm-9.15-2.5l6.52.35-2.74-10.2z"/><g><use xlink:href="#E" transform="matrix(1,0,0,1,1207.4855513104835,370.2175438541984) translate(0 14.4)"/><use xlink:href="#F" transform="matrix(1,0,0,1,1207.4855513104835,370.2175438541984) translate(90.85 14.4)"/><use xlink:href="#G" transform="matrix(1,0,0,1,1207.4855513104835,370.2175438541984) translate(115.85 14.4)"/></g><path d="M1039.58 286.07l3.9 5.6 3.8 5.96 3.67 6.33 3.53 6.73 3.38 7.15 3.22 7.6 3.02 8.1 2.8 8.57 2.55 9.1 2.04 8.65-1.95.46-2.03-8.6-2.54-9.03-2.77-8.5-2.98-8-3.18-7.53-3.35-7.08-3.5-6.67-3.63-6.27-3.75-5.88-3.86-5.53-.96-1.27h2.52zM944.9 228.6l6.33 1.06 6.1 1.28 5.9 1.5 5.7 1.72 5.56 1.92 5.38 2.12 5.24 2.33 5.12 2.53 5 2.73 4.86 2.93 4.77 3.16 4.67 3.37 4.57 3.6 4.48 3.86 1.77 1.65h-2.92l-.18-.16-4.4-3.8-4.52-3.56-4.6-3.33-4.7-3.1-4.8-2.9-4.92-2.7-5.03-2.5-5.16-2.28-5.3-2.1-5.47-1.88-5.63-1.7-5.82-1.48-6.02-1.28-6.24-1.04-5.28-.66.25-1.98z"/><path d="M1071.73 360.87l-1.96.4-.23-.97 1.95-.46zM938.22 233.5l-14-5.42 14.5-3.83z"/><path d="M939.14 234.93L921 227.9l18.8-4.97zm-11.68-6.67l9.84 3.8.36-6.5z"/><g><use xlink:href="#H" transform="matrix(1,0,0,1,938.1102569697799,264.3837046381732) translate(0 14.4)"/><use xlink:href="#F" transform="matrix(1,0,0,1,938.1102569697799,264.3837046381732) translate(73.95 14.4)"/><use xlink:href="#I" transform="matrix(1,0,0,1,938.1102569697799,264.3837046381732) translate(98.95 14.4)"/></g><g filter="url(#J)"><path d="M700 60h800v820H700z" stroke="#000" stroke-width="2" fill-opacity="0"/><use xlink:href="#K" transform="matrix(1,0,0,1,705,65) translate(373.525 406.74375)"/></g><defs><path d="M30-248c87 1 191-15 191 75 0 78-77 80-158 76V0H30v-248zm33 125c57 0 124 11 124-50 0-59-68-47-124-48v98" id="L"/><path d="M141-36C126-15 110 5 73 4 37 3 15-17 15-53c-1-64 63-63 125-63 3-35-9-54-41-54-24 1-41 7-42 31l-33-3c5-37 33-52 76-52 45 0 72 20 72 64v82c-1 20 7 32 28 27v20c-31 9-61-2-59-35zM48-53c0 20 12 33 32 33 41-3 63-29 60-74-43 2-92-5-92 41" id="M"/><path d="M96-169c-40 0-48 33-48 73s9 75 48 75c24 0 41-14 43-38l32 2c-6 37-31 61-74 61-59 0-76-41-82-99-10-93 101-131 147-64 4 7 5 14 7 22l-32 3c-4-21-16-35-41-35" id="N"/><path d="M24-231v-30h32v30H24zM24 0v-190h32V0H24" id="O"/><path d="M100-194c63 0 86 42 84 106H49c0 40 14 67 53 68 26 1 43-12 49-29l28 8c-11 28-37 45-77 45C44 4 14-33 15-96c1-61 26-98 85-98zm52 81c6-60-76-77-97-28-3 7-6 17-6 28h103" id="P"/><path d="M117-194c89-4 53 116 60 194h-32v-121c0-31-8-49-39-48C34-167 62-67 57 0H25l-1-190h30c1 10-1 24 2 32 11-22 29-35 61-36" id="Q"/><path d="M59-47c-2 24 18 29 38 22v24C64 9 27 4 27-40v-127H5v-23h24l9-43h21v43h35v23H59v120" id="R"/><g id="a"><use transform="matrix(0.05,0,0,0.05,0,0)" xlink:href="#L"/><use transform="matrix(0.05,0,0,0.05,12,0)" xlink:href="#M"/><use transform="matrix(0.05,0,0,0.05,22,0)" xlink:href="#N"/><use transform="matrix(0.05,0,0,0.05,31,0)" xlink:href="#O"/><use transform="matrix(0.05,0,0,0.05,34.95,0)" xlink:href="#P"/><use transform="matrix(0.05,0,0,0.05,44.95,0)" xlink:href="#Q"/><use transform="matrix(0.05,0,0,0.05,54.95,0)" xlink:href="#R"/><use transform="matrix(0.05,0,0,0.05,59.95,0)" xlink:href="#P"/></g><path d="M30 0v-248h187v28H63v79h144v27H63v87h162V0H30" id="S"/><path d="M114-163C36-179 61-72 57 0H25l-1-190h30c1 12-1 29 2 39 6-27 23-49 58-41v29" id="T"/><path d="M177-190C167-65 218 103 67 71c-23-6-38-20-44-43l32-5c15 47 100 32 89-28v-30C133-14 115 1 83 1 29 1 15-40 15-95c0-56 16-97 71-98 29-1 48 16 59 35 1-10 0-23 2-32h30zM94-22c36 0 50-32 50-73 0-42-14-75-50-75-39 0-46 34-46 75s6 73 46 73" id="U"/><g id="b"><use transform="matrix(0.05,0,0,0.05,0,0)" xlink:href="#S"/><use transform="matrix(0.05,0,0,0.05,12,0)" xlink:href="#Q"/><use transform="matrix(0.05,0,0,0.05,22,0)" xlink:href="#R"/><use transform="matrix(0.05,0,0,0.05,27,0)" xlink:href="#T"/><use transform="matrix(0.05,0,0,0.05,32.95,0)" xlink:href="#P"/><use transform="matrix(0.05,0,0,0.05,42.95,0)" xlink:href="#U"/><use transform="matrix(0.05,0,0,0.05,52.95,0)" xlink:href="#M"/><use transform="matrix(0.05,0,0,0.05,62.95,0)" xlink:href="#T"/></g><path d="M141 0L90-78 38 0H4l68-98-65-92h35l48 74 47-74h35l-64 92 68 98h-35" id="V"/><path d="M210-169c-67 3-38 105-44 169h-31v-121c0-29-5-50-35-48C34-165 62-65 56 0H25l-1-190h30c1 10-1 24 2 32 10-44 99-50 107 0 11-21 27-35 58-36 85-2 47 119 55 194h-31v-121c0-29-5-49-35-48" id="W"/><g id="c"><use transform="matrix(0.05,0,0,0.05,0,0)" xlink:href="#S"/><use transform="matrix(0.05,0,0,0.05,12,0)" xlink:href="#V"/><use transform="matrix(0.05,0,0,0.05,21,0)" xlink:href="#M"/><use transform="matrix(0.05,0,0,0.05,31,0)" xlink:href="#W"/><use transform="matrix(0.05,0,0,0.05,45.95,0)" xlink:href="#P"/></g><path d="M135-143c-3-34-86-38-87 0 15 53 115 12 119 90S17 21 10-45l28-5c4 36 97 45 98 0-10-56-113-15-118-90-4-57 82-63 122-42 12 7 21 19 24 35" id="X"/><path d="M100-194c62-1 85 37 85 99 1 63-27 99-86 99S16-35 15-95c0-66 28-99 85-99zM99-20c44 1 53-31 53-75 0-43-8-75-51-75s-53 32-53 75 10 74 51 75" id="Y"/><path d="M24 0v-261h32V0H24" id="Z"/><path d="M96-169c-40 0-48 33-48 73s9 75 48 75c24 0 41-14 43-38l32 2c-6 37-31 61-74 61-59 0-76-41-82-99-10-93 101-131 147-64 4 7 5 14 7 22l-32 3c-4-21-16-35-41-35zm3 187c19-1 33 8 33 26 0 31-30 33-64 32V58c18 2 39 4 41-13 1-15-18-13-34-13L87 0h19" id="aa"/><path d="M141-36C126-15 110 5 73 4 37 3 15-17 15-53c-1-64 63-63 125-63 3-35-9-54-41-54-24 1-41 7-42 31l-33-3c5-37 33-52 76-52 45 0 72 20 72 64v82c-1 20 7 32 28 27v20c-31 9-61-2-59-35zM48-53c0 20 12 33 32 33 41-3 63-29 60-74-43 2-92-5-92 41zm117-205c-3 23-9 48-36 47-26-1-65-44-74 0H39c4-23 8-48 36-47s64 44 74 0h16" id="ab"/><g id="d"><use transform="matrix(0.05,0,0,0.05,0,0)" xlink:href="#X"/><use transform="matrix(0.05,0,0,0.05,9,0)" xlink:href="#Y"/><use transform="matrix(0.05,0,0,0.05,19,0)" xlink:href="#Z"/><use transform="matrix(0.05,0,0,0.05,22.95,0)" xlink:href="#O"/><use transform="matrix(0.05,0,0,0.05,26.899999999999995,0)" xlink:href="#N"/><use transform="matrix(0.05,0,0,0.05,35.9,0)" xlink:href="#O"/><use transform="matrix(0.05,0,0,0.05,39.85,0)" xlink:href="#R"/><use transform="matrix(0.05,0,0,0.05,44.85,0)" xlink:href="#M"/><use transform="matrix(0.05,0,0,0.05,54.85,0)" xlink:href="#aa"/><use transform="matrix(0.05,0,0,0.05,63.85,0)" xlink:href="#ab"/><use transform="matrix(0.05,0,0,0.05,73.85,0)" xlink:href="#Y"/></g><path d="M85-194c31 0 48 13 60 33l-1-100h32l1 261h-30c-2-10 0-23-3-31C134-8 116 4 85 4 32 4 16-35 15-94c0-66 23-100 70-100zm9 24c-40 0-46 34-46 75 0 40 6 74 45 74 42 0 51-32 51-76 0-42-9-74-50-73" id="ac"/><g id="e"><use transform="matrix(0.05,0,0,0.05,0,0)" xlink:href="#ac"/><use transform="matrix(0.05,0,0,0.05,10,0)" xlink:href="#P"/></g><g id="f"><use transform="matrix(0.05,0,0,0.05,0,0)" xlink:href="#T"/><use transform="matrix(0.05,0,0,0.05,5.95,0)" xlink:href="#P"/><use transform="matrix(0.05,0,0,0.05,15.949999999999998,0)" xlink:href="#R"/><use transform="matrix(0.05,0,0,0.05,20.95,0)" xlink:href="#O"/><use transform="matrix(0.05,0,0,0.05,24.9,0)" xlink:href="#T"/><use transform="matrix(0.05,0,0,0.05,30.849999999999994,0)" xlink:href="#M"/><use transform="matrix(0.05,0,0,0.05,40.849999999999994,0)" xlink:href="#ac"/><use transform="matrix(0.05,0,0,0.05,50.849999999999994,0)" xlink:href="#M"/></g><path d="M233-177c-1 41-23 64-60 70L243 0h-38l-65-103H63V0H30v-248c88 3 205-21 203 71zM63-129c60-2 137 13 137-47 0-61-80-42-137-45v92" id="ad"/><path d="M84 4C-5 8 30-112 23-190h32v120c0 31 7 50 39 49 72-2 45-101 50-169h31l1 190h-30c-1-10 1-25-2-33-11 22-28 36-60 37" id="ae"/><g id="g"><use transform="matrix(0.05,0,0,0.05,0,0)" xlink:href="#ad"/><use transform="matrix(0.05,0,0,0.05,12.950000000000001,0)" xlink:href="#P"/><use transform="matrix(0.05,0,0,0.05,22.950000000000003,0)" xlink:href="#X"/><use transform="matrix(0.05,0,0,0.05,31.950000000000003,0)" xlink:href="#ae"/><use transform="matrix(0.05,0,0,0.05,41.95,0)" xlink:href="#Z"/><use transform="matrix(0.05,0,0,0.05,45.900000000000006,0)" xlink:href="#R"/><use transform="matrix(0.05,0,0,0.05,50.900000000000006,0)" xlink:href="#M"/><use transform="matrix(0.05,0,0,0.05,60.900000000000006,0)" xlink:href="#ac"/><use transform="matrix(0.05,0,0,0.05,70.9,0)" xlink:href="#Y"/></g><g id="h"><use transform="matrix(0.05,0,0,0.05,0,0)" xlink:href="#ac"/><use transform="matrix(0.05,0,0,0.05,10,0)" xlink:href="#P"/></g><g id="i"><use transform="matrix(0.05,0,0,0.05,0,0)" xlink:href="#P"/><use transform="matrix(0.05,0,0,0.05,10,0)" xlink:href="#V"/><use transform="matrix(0.05,0,0,0.05,19,0)" xlink:href="#M"/><use transform="matrix(0.05,0,0,0.05,29,0)" xlink:href="#W"/><use transform="matrix(0.05,0,0,0.05,43.95,0)" xlink:href="#P"/></g><g id="j"><use transform="matrix(0.05,0,0,0.05,0,0)" xlink:href="#Q"/><use transform="matrix(0.05,0,0,0.05,10,0)" xlink:href="#ab"/><use transform="matrix(0.05,0,0,0.05,20,0)" xlink:href="#Y"/></g><path d="M141-36C126-15 110 5 73 4 37 3 15-17 15-53c-1-64 63-63 125-63 3-35-9-54-41-54-24 1-41 7-42 31l-33-3c5-37 33-52 76-52 45 0 72 20 72 64v82c-1 20 7 32 28 27v20c-31 9-61-2-59-35zM48-53c0 20 12 33 32 33 41-3 63-29 60-74-43 2-92-5-92 41zm25-158c8-23 27-35 38-54h36v5l-58 49H73" id="af"/><g id="k"><use transform="matrix(0.05,0,0,0.05,0,0)" xlink:href="#P"/><use transform="matrix(0.05,0,0,0.05,10,0)" xlink:href="#X"/><use transform="matrix(0.05,0,0,0.05,19,0)" xlink:href="#R"/><use transform="matrix(0.05,0,0,0.05,24,0)" xlink:href="#af"/></g><path d="M115-194c55 1 70 41 70 98S169 2 115 4C84 4 66-9 55-30l1 105H24l-1-265h31l2 30c10-21 28-34 59-34zm-8 174c40 0 45-34 45-75s-6-73-45-74c-42 0-51 32-51 76 0 43 10 73 51 73" id="ag"/><g id="l"><use transform="matrix(0.05,0,0,0.05,0,0)" xlink:href="#ag"/><use transform="matrix(0.05,0,0,0.05,10,0)" xlink:href="#T"/><use transform="matrix(0.05,0,0,0.05,15.949999999999998,0)" xlink:href="#Y"/><use transform="matrix(0.05,0,0,0.05,25.950000000000003,0)" xlink:href="#Q"/><use transform="matrix(0.05,0,0,0.05,35.95,0)" xlink:href="#R"/><use transform="matrix(0.05,0,0,0.05,40.95,0)" xlink:href="#Y"/></g><g id="m"><use transform="matrix(0.05,0,0,0.05,0,0)" xlink:href="#P"/><use transform="matrix(0.05,0,0,0.05,10,0)" xlink:href="#Q"/><use transform="matrix(0.05,0,0,0.05,20,0)" xlink:href="#R"/><use transform="matrix(0.05,0,0,0.05,25,0)" xlink:href="#T"/><use transform="matrix(0.05,0,0,0.05,30.950000000000003,0)" xlink:href="#P"/><use transform="matrix(0.05,0,0,0.05,40.95,0)" xlink:href="#U"/><use transform="matrix(0.05,0,0,0.05,50.95,0)" xlink:href="#M"/></g><g id="n"><use transform="matrix(0.05,0,0,0.05,0,0)" xlink:href="#ac"/><use transform="matrix(0.05,0,0,0.05,10,0)" xlink:href="#P"/></g><g id="o"><use transform="matrix(0.05,0,0,0.05,0,0)" xlink:href="#T"/><use transform="matrix(0.05,0,0,0.05,5.95,0)" xlink:href="#P"/><use transform="matrix(0.05,0,0,0.05,15.949999999999998,0)" xlink:href="#X"/><use transform="matrix(0.05,0,0,0.05,24.95,0)" xlink:href="#ae"/><use transform="matrix(0.05,0,0,0.05,34.95,0)" xlink:href="#Z"/><use transform="matrix(0.05,0,0,0.05,38.900000000000006,0)" xlink:href="#R"/><use transform="matrix(0.05,0,0,0.05,43.900000000000006,0)" xlink:href="#M"/><use transform="matrix(0.05,0,0,0.05,53.900000000000006,0)" xlink:href="#ac"/><use transform="matrix(0.05,0,0,0.05,63.900000000000006,0)" xlink:href="#Y"/></g><filter id="p" filterUnits="objectBoundingBox" x="-.01" y="-.02" width="1.03" height="1.02"><feOffset result="offOut" in="SourceAlpha" dx="3.49" dy="-4.88"/><feGaussianBlur result="blurOut" in="offOut" stdDeviation="5"/><feColorMatrix result="colorOut" in="blurOut" values="0 0 0 0 0 0 0 0 0 0 0 0 0 0 0 0 0 0 0.5019607843137255 0"/><feBlend in="SourceGraphic" in2="colorOut"/></filter><path d="M140-251c81 0 123 46 123 126C263-46 219 4 140 4 59 4 17-45 17-125s42-126 123-126zm0 227c63 0 89-41 89-101s-29-99-89-99c-61 0-89 39-89 99S79-25 140-24" id="ah"/><g id="r"><use transform="matrix(0.05,0,0,0.05,0,0)" xlink:href="#ah"/><use transform="matrix(0.05,0,0,0.05,14,0)" xlink:href="#ag"/><use transform="matrix(0.05,0,0,0.05,24,0)" xlink:href="#P"/><use transform="matrix(0.05,0,0,0.05,34,0)" xlink:href="#T"/><use transform="matrix(0.05,0,0,0.05,39.95,0)" xlink:href="#M"/><use transform="matrix(0.05,0,0,0.05,49.95,0)" xlink:href="#ac"/><use transform="matrix(0.05,0,0,0.05,59.95,0)" xlink:href="#Y"/><use transform="matrix(0.05,0,0,0.05,69.95,0)" xlink:href="#T"/><use transform="matrix(0.05,0,0,0.05,75.9,0)" xlink:href="#M"/></g><g id="s"><use transform="matrix(0.05,0,0,0.05,0,0)" xlink:href="#L"/><use transform="matrix(0.05,0,0,0.05,12,0)" xlink:href="#Z"/><use transform="matrix(0.05,0,0,0.05,15.949999999999998,0)" xlink:href="#M"/><use transform="matrix(0.05,0,0,0.05,25.950000000000003,0)" xlink:href="#Q"/><use transform="matrix(0.05,0,0,0.05,35.95,0)" xlink:href="#Y"/><use transform="matrix(0.05,0,0,0.05,45.95,0)" xlink:href="#X"/></g><path d="M185-189c-5-48-123-54-124 2 14 75 158 14 163 119 3 78-121 87-175 55-17-10-28-26-33-46l33-7c5 56 141 63 141-1 0-78-155-14-162-118-5-82 145-84 179-34 5 7 8 16 11 25" id="ai"/><path d="M85 4C-4 8 31-112 24-190h32v120c0 31 7 50 39 49 72-2 45-101 50-169h31l1 190h-30c-1-10 1-25-2-33-11 22-28 36-60 37zM73-211c8-23 27-35 38-54h36v5l-58 49H73" id="aj"/><g id="t"><use transform="matrix(0.05,0,0,0.05,0,0)" xlink:href="#ai"/><use transform="matrix(0.05,0,0,0.05,12,0)" xlink:href="#M"/><use transform="matrix(0.05,0,0,0.05,22,0)" xlink:href="#aj"/><use transform="matrix(0.05,0,0,0.05,32,0)" xlink:href="#ac"/><use transform="matrix(0.05,0,0,0.05,42,0)" xlink:href="#P"/></g><filter id="q" filterUnits="objectBoundingBox" x="-.04" y="-.09" width="1.13" height="1.13"><feOffset result="offOut" in="SourceAlpha" dx="3.49" dy="-4.88"/><feGaussianBlur result="blurOut" in="offOut" stdDeviation="5"/><feColorMatrix result="colorOut" in="blurOut" values="0 0 0 0 0 0 0 0 0 0 0 0 0 0 0 0 0 0 0.5019607843137255 0"/><feBlend in="SourceGraphic" in2="colorOut"/></filter><path d="M212-179c-10-28-35-45-73-45-59 0-87 40-87 99 0 60 29 101 89 101 43 0 62-24 78-52l27 14C228-24 195 4 139 4 59 4 22-46 18-125c-6-104 99-153 187-111 19 9 31 26 39 46" id="ak"/><path d="M106-169C34-169 62-67 57 0H25v-261h32l-1 103c12-21 28-36 61-36 89 0 53 116 60 194h-32v-121c2-32-8-49-39-48" id="al"/><g id="v"><use transform="matrix(0.05,0,0,0.05,0,0)" xlink:href="#ak"/><use transform="matrix(0.05,0,0,0.05,12.950000000000001,0)" xlink:href="#al"/><use transform="matrix(0.05,0,0,0.05,22.950000000000003,0)" xlink:href="#P"/><use transform="matrix(0.05,0,0,0.05,32.95,0)" xlink:href="#N"/><use transform="matrix(0.05,0,0,0.05,41.95,0)" xlink:href="#M"/><use transform="matrix(0.05,0,0,0.05,51.95,0)" xlink:href="#T"/></g><path d="M115-194c53 0 69 39 70 98 0 66-23 100-70 100C84 3 66-7 56-30L54 0H23l1-261h32v101c10-23 28-34 59-34zm-8 174c40 0 45-34 45-75 0-40-5-75-45-74-42 0-51 32-51 76 0 43 10 73 51 73" id="am"/><g id="w"><use transform="matrix(0.05,0,0,0.05,0,0)" xlink:href="#ak"/><use transform="matrix(0.05,0,0,0.05,12.950000000000001,0)" xlink:href="#Y"/><use transform="matrix(0.05,0,0,0.05,22.950000000000003,0)" xlink:href="#am"/><use transform="matrix(0.05,0,0,0.05,32.95,0)" xlink:href="#P"/><use transform="matrix(0.05,0,0,0.05,42.95,0)" xlink:href="#T"/><use transform="matrix(0.05,0,0,0.05,48.900000000000006,0)" xlink:href="#R"/><use transform="matrix(0.05,0,0,0.05,53.900000000000006,0)" xlink:href="#ae"/><use transform="matrix(0.05,0,0,0.05,63.900000000000006,0)" xlink:href="#T"/><use transform="matrix(0.05,0,0,0.05,69.85000000000001,0)" xlink:href="#M"/></g><filter id="u" filterUnits="objectBoundingBox" x="-.04" y="-.08" width="1.11" height="1.11"><feOffset result="offOut" in="SourceAlpha" dx="3.49" dy="-4.88"/><feGaussianBlur result="blurOut" in="offOut" stdDeviation="5"/><feColorMatrix result="colorOut" in="blurOut" values="0 0 0 0 0 0 0 0 0 0 0 0 0 0 0 0 0 0 0.5019607843137255 0"/><feBlend in="SourceGraphic" in2="colorOut"/></filter><g id="y"><use transform="matrix(0.05,0,0,0.05,0,0)" xlink:href="#L"/><use transform="matrix(0.05,0,0,0.05,12,0)" xlink:href="#Z"/><use transform="matrix(0.05,0,0,0.05,15.949999999999998,0)" xlink:href="#M"/><use transform="matrix(0.05,0,0,0.05,25.950000000000003,0)" xlink:href="#Q"/><use transform="matrix(0.05,0,0,0.05,35.95,0)" xlink:href="#Y"/></g><g id="z"><use transform="matrix(0.05,0,0,0.05,0,0)" xlink:href="#ai"/><use transform="matrix(0.05,0,0,0.05,12,0)" xlink:href="#M"/><use transform="matrix(0.05,0,0,0.05,22,0)" xlink:href="#aj"/><use transform="matrix(0.05,0,0,0.05,32,0)" xlink:href="#ac"/><use transform="matrix(0.05,0,0,0.05,42,0)" xlink:href="#P"/></g><filter id="x" filterUnits="objectBoundingBox" x="-.03" y="-.15" width="1.1" height="1.2"><feOffset result="offOut" in="SourceAlpha" dx="3.49" dy="-4.88"/><feGaussianBlur result="blurOut" in="offOut" stdDeviation="5"/><feColorMatrix result="colorOut" in="blurOut" values="0 0 0 0 0 0 0 0 0 0 0 0 0 0 0 0 0 0 0.5019607843137255 0"/><feBlend in="SourceGraphic" in2="colorOut"/></filter><path d="M100-194c62-1 85 37 85 99 1 63-27 99-86 99S16-35 15-95c0-66 28-99 85-99zM99-20c44 1 53-31 53-75 0-43-8-75-51-75s-53 32-53 75 10 74 51 75zM76-211c8-23 27-35 38-54h36v5l-58 49H76" id="an"/><g id="A"><use transform="matrix(0.05,0,0,0.05,0,0)" xlink:href="#ak"/><use transform="matrix(0.05,0,0,0.05,12.950000000000001,0)" xlink:href="#an"/><use transform="matrix(0.05,0,0,0.05,22.950000000000003,0)" xlink:href="#ac"/><use transform="matrix(0.05,0,0,0.05,32.95,0)" xlink:href="#O"/><use transform="matrix(0.05,0,0,0.05,36.900000000000006,0)" xlink:href="#U"/><use transform="matrix(0.05,0,0,0.05,46.900000000000006,0)" xlink:href="#Y"/></g><g id="B"><use transform="matrix(0.05,0,0,0.05,0,0)" xlink:href="#ac"/><use transform="matrix(0.05,0,0,0.05,10,0)" xlink:href="#Y"/></g><g id="C"><use transform="matrix(0.05,0,0,0.05,0,0)" xlink:href="#ad"/><use transform="matrix(0.05,0,0,0.05,12.950000000000001,0)" xlink:href="#P"/><use transform="matrix(0.05,0,0,0.05,22.950000000000003,0)" xlink:href="#N"/><use transform="matrix(0.05,0,0,0.05,31.950000000000003,0)" xlink:href="#P"/><use transform="matrix(0.05,0,0,0.05,41.95,0)" xlink:href="#ag"/><use transform="matrix(0.05,0,0,0.05,51.95,0)" xlink:href="#N"/><use transform="matrix(0.05,0,0,0.05,60.95,0)" xlink:href="#O"/><use transform="matrix(0.05,0,0,0.05,64.9,0)" xlink:href="#Y"/><use transform="matrix(0.05,0,0,0.05,74.9,0)" xlink:href="#Q"/><use transform="matrix(0.05,0,0,0.05,84.9,0)" xlink:href="#O"/><use transform="matrix(0.05,0,0,0.05,88.85000000000001,0)" xlink:href="#X"/><use transform="matrix(0.05,0,0,0.05,97.85000000000001,0)" xlink:href="#R"/><use transform="matrix(0.05,0,0,0.05,102.85000000000001,0)" xlink:href="#M"/></g><g id="D"><use transform="matrix(0.05,0,0,0.05,0,0)" xlink:href="#P"/><use transform="matrix(0.05,0,0,0.05,10,0)" xlink:href="#V"/><use transform="matrix(0.05,0,0,0.05,19,0)" xlink:href="#M"/><use transform="matrix(0.05,0,0,0.05,29,0)" xlink:href="#W"/><use transform="matrix(0.05,0,0,0.05,43.95,0)" xlink:href="#P"/></g><path d="M108 0H70L1-190h34L89-25l56-165h34" id="ao"/><path d="M101-234c-31-9-42 10-38 44h38v23H63V0H32v-167H5v-23h27c-7-52 17-82 69-68v24" id="ap"/><g id="E"><use transform="matrix(0.05,0,0,0.05,0,0)" xlink:href="#ao"/><use transform="matrix(0.05,0,0,0.05,9,0)" xlink:href="#P"/><use transform="matrix(0.05,0,0,0.05,19,0)" xlink:href="#T"/><use transform="matrix(0.05,0,0,0.05,24.95,0)" xlink:href="#O"/><use transform="matrix(0.05,0,0,0.05,28.899999999999995,0)" xlink:href="#ap"/><use transform="matrix(0.05,0,0,0.05,33.9,0)" xlink:href="#O"/><use transform="matrix(0.05,0,0,0.05,37.85,0)" xlink:href="#N"/><use transform="matrix(0.05,0,0,0.05,46.85,0)" xlink:href="#M"/><use transform="matrix(0.05,0,0,0.05,56.85,0)" xlink:href="#aa"/><use transform="matrix(0.05,0,0,0.05,65.85,0)" xlink:href="#ab"/><use transform="matrix(0.05,0,0,0.05,75.85,0)" xlink:href="#Y"/></g><g id="F"><use transform="matrix(0.05,0,0,0.05,0,0)" xlink:href="#ac"/><use transform="matrix(0.05,0,0,0.05,10,0)" xlink:href="#M"/></g><g id="G"><use transform="matrix(0.05,0,0,0.05,0,0)" xlink:href="#N"/><use transform="matrix(0.05,0,0,0.05,9,0)" xlink:href="#Y"/><use transform="matrix(0.05,0,0,0.05,19,0)" xlink:href="#am"/><use transform="matrix(0.05,0,0,0.05,29,0)" xlink:href="#P"/><use transform="matrix(0.05,0,0,0.05,39,0)" xlink:href="#T"/><use transform="matrix(0.05,0,0,0.05,44.95,0)" xlink:href="#R"/><use transform="matrix(0.05,0,0,0.05,49.95,0)" xlink:href="#ae"/><use transform="matrix(0.05,0,0,0.05,59.95,0)" xlink:href="#T"/><use transform="matrix(0.05,0,0,0.05,65.9,0)" xlink:href="#M"/></g><g id="H"><use transform="matrix(0.05,0,0,0.05,0,0)" xlink:href="#T"/><use transform="matrix(0.05,0,0,0.05,5.95,0)" xlink:href="#P"/><use transform="matrix(0.05,0,0,0.05,15.949999999999998,0)" xlink:href="#X"/><use transform="matrix(0.05,0,0,0.05,24.95,0)" xlink:href="#ag"/><use transform="matrix(0.05,0,0,0.05,34.95,0)" xlink:href="#Y"/><use transform="matrix(0.05,0,0,0.05,44.95,0)" xlink:href="#X"/><use transform="matrix(0.05,0,0,0.05,53.95,0)" xlink:href="#R"/><use transform="matrix(0.05,0,0,0.05,58.95,0)" xlink:href="#M"/></g><g id="I"><use transform="matrix(0.05,0,0,0.05,0,0)" xlink:href="#X"/><use transform="matrix(0.05,0,0,0.05,9,0)" xlink:href="#Y"/><use transform="matrix(0.05,0,0,0.05,19,0)" xlink:href="#Z"/><use transform="matrix(0.05,0,0,0.05,22.95,0)" xlink:href="#O"/><use transform="matrix(0.05,0,0,0.05,26.899999999999995,0)" xlink:href="#N"/><use transform="matrix(0.05,0,0,0.05,35.9,0)" xlink:href="#O"/><use transform="matrix(0.05,0,0,0.05,39.85,0)" xlink:href="#R"/><use transform="matrix(0.05,0,0,0.05,44.85,0)" xlink:href="#M"/><use transform="matrix(0.05,0,0,0.05,54.85,0)" xlink:href="#aa"/><use transform="matrix(0.05,0,0,0.05,63.85,0)" xlink:href="#ab"/><use transform="matrix(0.05,0,0,0.05,73.85,0)" xlink:href="#Y"/></g><path d="M127-220V0H93v-220H8v-28h204v28h-85" id="aq"/><g id="K"><use transform="matrix(0.05,0,0,0.05,0,0)" xlink:href="#aq"/><use transform="matrix(0.05,0,0,0.05,8.950000000000001,0)" xlink:href="#P"/><use transform="matrix(0.05,0,0,0.05,18.950000000000003,0)" xlink:href="#V"/><use transform="matrix(0.05,0,0,0.05,27.950000000000003,0)" xlink:href="#R"/><use transform="matrix(0.05,0,0,0.05,32.95,0)" xlink:href="#Y"/></g><filter id="J" filterUnits="objectBoundingBox" x="-.01" y="-.02" width="1.02" height="1.02"><feOffset result="offOut" in="SourceAlpha" dx="3.49" dy="-4.88"/><feGaussianBlur result="blurOut" in="offOut" stdDeviation="5"/><feColorMatrix result="colorOut" in="blurOut" values="0 0 0 0 0 0 0 0 0 0 0 0 0 0 0 0 0 0 0.5019607843137255 0"/><feBlend in="SourceGraphic" in2="colorOut"/></filter></defs></g></svg>